<?xml version="1.0" standalone="no"?>
<!DOCTYPE svg PUBLIC "-//W3C//DTD SVG 20010904//EN"
 "http://www.w3.org/TR/2001/REC-SVG-20010904/DTD/svg10.dtd">
<svg version="1.0" xmlns="http://www.w3.org/2000/svg"
 width="400.000000pt" height="400.000000pt" viewBox="0 0 400.000000 400.000000"
 preserveAspectRatio="xMidYMid meet">
<metadata>
Created by potrace 1.16, written by Peter Selinger 2001-2019
</metadata>
<g transform="translate(0.000000,400.000000) scale(0.100000,-0.100000)"
fill="#000000" stroke="none">
<path d="M0 3133 c0 -476 2 -864 4 -862 2 2 8 364 15 804 6 440 14 828 16 863
5 57 4 62 -15 62 -20 0 -20 -3 -20 -867z"/>
<path d="M2017 3659 c-21 -5 -45 -16 -53 -24 -9 -8 -25 -15 -36 -15 -11 0 -27
-8 -34 -17 -11 -15 -15 -16 -23 -4 -7 11 -13 11 -32 -3 -13 -9 -34 -16 -47
-16 -36 0 -95 -28 -86 -41 5 -8 1 -10 -14 -7 -13 4 -23 0 -26 -9 -3 -8 -11
-11 -17 -8 -5 4 -17 -1 -24 -11 -8 -11 -15 -15 -15 -11 0 14 -60 -34 -60 -48
0 -8 -18 -24 -39 -35 -22 -11 -42 -24 -46 -30 -3 -5 -16 -10 -29 -10 -23 0
-27 -3 -115 -94 -29 -31 -59 -56 -66 -56 -19 0 -48 -38 -42 -54 4 -9 2 -18 -3
-21 -6 -4 -10 -14 -10 -25 0 -10 -6 -20 -14 -23 -40 -15 -54 -217 -41 -597 6
-202 10 -236 25 -255 9 -11 9 -15 1 -15 -19 0 -12 -22 9 -27 11 -3 20 -11 20
-18 0 -7 7 -15 15 -19 8 -3 15 -12 15 -20 0 -7 7 -27 15 -42 8 -16 15 -40 15
-53 0 -23 -1 -23 -19 -7 -17 16 -20 15 -45 -19 -19 -25 -29 -52 -33 -91 -6
-52 -5 -56 14 -52 27 4 53 -19 53 -48 0 -13 4 -24 8 -24 5 0 14 -35 20 -77 10
-65 10 -80 -1 -88 -8 -5 -19 -20 -25 -32 -10 -18 -9 -23 7 -28 10 -3 18 -13
17 -23 0 -9 5 -17 13 -17 12 0 28 -25 30 -47 2 -18 -17 -6 -24 15 -9 29 -19 4
-11 -28 4 -16 11 -22 20 -19 8 3 19 -3 25 -15 14 -25 -4 -39 -18 -14 -8 14
-10 15 -11 3 0 -33 12 -58 26 -53 9 3 14 -1 14 -12 0 -9 -4 -13 -10 -10 -5 3
-3 -10 5 -29 20 -47 19 -59 -4 -51 -16 5 -18 2 -14 -16 4 -13 0 -26 -8 -33 -8
-6 -20 -24 -27 -40 l-13 -29 -21 23 c-19 20 -22 20 -30 6 -5 -9 -6 -21 -3 -26
3 -6 -1 -10 -10 -10 -9 0 -14 -3 -12 -7 3 -5 -1 -14 -9 -21 -8 -7 -14 -10 -14
-6 0 3 -7 1 -15 -6 -8 -7 -12 -17 -8 -24 3 -6 -2 -3 -13 6 -33 29 -69 31 -134
9 -33 -12 -70 -21 -83 -21 -12 0 -48 -16 -80 -35 -32 -19 -60 -35 -63 -35 -7
0 -280 -108 -334 -132 -165 -74 -236 -113 -322 -177 l-98 -73 0 -319 0 -319
1431 0 1430 0 -18 30 c-23 40 -173 178 -298 276 -167 129 -166 128 -159 144 5
14 10 40 34 177 11 67 41 143 55 143 6 0 17 16 24 35 7 20 29 53 49 75 71 75
81 89 134 190 45 87 97 160 163 231 8 9 15 20 15 26 0 6 9 21 19 35 13 15 18
33 14 46 -4 16 -1 22 11 22 11 0 16 9 16 29 0 17 4 33 10 36 6 3 10 28 10 55
0 27 5 52 10 55 6 3 10 41 10 83 -1 66 -3 74 -14 60 -15 -21 -26 -13 -26 18 0
13 -4 25 -9 28 -5 3 -12 22 -15 41 -4 19 -11 35 -16 35 -6 0 -30 16 -56 35
-25 19 -54 35 -64 35 -10 0 -25 6 -32 13 -8 6 -22 17 -33 23 -44 24 -46 74 -3
74 13 0 32 6 43 14 27 18 122 18 129 0 3 -8 12 -14 20 -14 8 0 17 -6 19 -12 3
-7 6 1 6 18 1 17 -2 34 -6 38 -4 4 -8 26 -9 49 -3 86 -16 207 -24 212 -4 2
-13 25 -20 50 -7 25 -19 45 -26 45 -8 0 -14 5 -14 10 0 6 7 10 16 10 14 0 14
1 0 16 -9 8 -16 19 -16 24 0 5 -13 11 -30 15 -16 4 -30 11 -30 16 0 13 24 11
37 -2 8 -8 10 15 8 87 -2 61 0 91 5 79 7 -17 9 -17 9 -3 1 10 -8 23 -19 30
-12 8 -20 24 -20 40 0 18 -5 28 -15 28 -8 0 -17 14 -21 36 -4 19 -12 38 -19
41 -13 4 -30 49 -27 66 1 4 -5 10 -13 13 -20 8 -19 30 2 38 12 5 13 10 5 18
-8 8 -15 8 -27 -2 -9 -8 -15 -8 -15 -2 0 6 4 13 9 16 5 3 7 15 4 26 -5 21 11
28 22 10 3 -5 15 -10 26 -10 10 0 19 -5 19 -11 0 -5 4 -7 10 -4 6 3 7 -1 4 -9
-4 -10 -1 -16 9 -16 10 0 13 -7 10 -20 -3 -11 -1 -20 5 -20 6 0 20 -20 32 -45
24 -50 30 -56 24 -22 -3 12 7 -9 20 -48 14 -38 28 -83 32 -100 12 -61 33 -303
34 -405 1 -98 6 -133 60 -385 7 -29 8 -19 4 40 -3 44 -10 98 -16 120 -6 24 -9
174 -8 380 2 465 -1 516 -35 567 -30 45 -38 75 -24 83 13 8 11 35 -2 35 -15 0
-41 28 -35 38 3 5 -9 22 -27 39 -25 24 -40 30 -70 29 -28 -1 -36 2 -32 12 3 8
5 18 5 23 0 5 6 9 14 9 8 0 17 7 20 16 7 18 -18 64 -35 64 -6 0 -8 9 -4 21 6
19 4 21 -17 16 -17 -5 -29 -1 -41 13 -20 24 -33 25 -71 5 -34 -18 -36 -18 -36
-5 0 6 7 10 15 10 20 0 19 16 -1 24 -11 4 -14 13 -10 31 6 25 -7 35 -19 15
-11 -17 -23 -11 -29 16 -12 45 -95 69 -229 66 -49 -2 -104 2 -123 7 -25 7 -34
6 -34 -2 0 -7 -5 -4 -11 6 -6 9 -14 15 -19 12 -5 -3 -11 -1 -15 5 -7 11 -6 11
-58 -1z m343 -49 c12 -8 11 -10 -7 -10 -13 0 -23 5 -23 10 0 13 11 13 30 0z
m270 -160 c0 -5 -10 -10 -22 -10 -19 0 -20 2 -8 10 19 13 30 13 30 0z m-435
-309 c44 -16 52 -24 63 -60 8 -22 18 -41 23 -41 4 0 13 18 19 40 6 22 13 40
15 40 3 0 5 -25 5 -55 l0 -55 -40 0 c-29 0 -40 4 -40 15 0 10 -10 15 -30 15
-28 0 -30 -2 -30 -40 0 -38 -1 -40 -32 -40 -33 0 -68 -24 -68 -47 0 -9 -13
-13 -40 -13 -22 0 -40 -4 -40 -10 0 -5 -7 -10 -16 -10 -24 0 -11 -24 17 -30
27 -7 38 -38 18 -51 -19 -11 18 -51 41 -44 9 3 25 -3 35 -15 10 -11 29 -20 42
-20 14 0 23 -6 23 -15 0 -11 11 -15 40 -15 22 0 40 -5 40 -10 0 -6 16 -4 37 5
23 10 39 12 41 6 2 -5 10 -7 18 -4 8 3 22 2 32 -3 18 -8 50 -13 96 -14 16 -1
42 -8 57 -16 25 -13 29 -12 38 4 10 15 11 15 17 -5 3 -13 12 -23 20 -23 8 0
11 6 8 15 -4 8 -2 15 4 15 5 0 13 -11 16 -25 4 -14 13 -25 20 -25 19 0 30 -32
14 -41 -8 -6 -14 -3 -17 8 -2 13 -5 13 -11 2 -10 -15 -80 -21 -80 -6 0 6 -8 3
-17 -5 -14 -11 -41 -14 -126 -11 -79 3 -113 0 -125 -9 -12 -10 -16 -10 -19 0
-9 24 -49 13 -60 -15 l-10 -28 -10 25 c-7 17 -20 26 -38 28 -15 1 -32 5 -38 9
-20 13 -36 12 -48 -3 -12 -15 -53 -12 -149 12 -30 8 -76 14 -103 14 -46 0 -52
-3 -101 -55 -42 -43 -57 -53 -75 -48 -12 3 -21 2 -19 -3 1 -5 -10 -22 -25 -38
l-27 -29 0 27 c0 19 6 29 20 33 11 3 20 12 20 19 0 8 5 14 11 14 5 0 7 5 4 11
-4 6 3 13 15 16 16 4 18 8 8 14 -9 6 -7 9 10 9 15 0 22 6 22 20 0 11 7 20 15
20 8 0 15 -4 15 -9 0 -5 18 -2 40 6 40 16 49 27 30 38 -5 3 -10 -1 -10 -9 0
-10 -9 -16 -25 -16 -29 0 -34 16 -7 23 9 2 2 3 -15 1 -27 -2 -33 1 -33 17 0
15 7 19 39 19 48 0 101 18 98 33 -1 6 8 13 20 15 14 2 26 16 36 40 14 35 14
37 -6 40 -12 2 -23 -1 -25 -7 -5 -14 -39 -14 -47 -1 -3 6 0 10 8 10 10 0 16
13 19 40 3 37 2 39 -27 43 -27 3 -26 4 8 5 l37 2 0 50 0 50 43 2 c23 0 49 1
58 0 9 -1 25 8 34 18 10 11 14 20 9 20 -5 0 -2 5 6 11 11 7 3 9 -32 7 -26 -1
-50 1 -54 5 -4 4 13 7 38 7 29 0 66 10 108 31 41 20 71 28 87 24 16 -4 23 -1
23 10 0 11 -11 15 -40 15 -22 0 -40 5 -40 10 0 16 61 11 115 -9z m655 -21 c0
-5 -8 -10 -17 -10 -15 0 -16 2 -3 10 19 12 20 12 20 0z m-213 -77 c-3 -2 -13
-3 -23 -1 -16 3 -16 4 2 22 18 18 19 18 22 2 2 -10 1 -20 -1 -23z m-1041 -174
c3 -6 -1 -18 -10 -27 -16 -16 -18 -16 -32 2 -8 11 -14 23 -14 28 0 12 48 10
56 -3z m-76 -139 c0 -5 18 -10 40 -10 41 0 57 -21 25 -34 -11 -4 -15 -22 -15
-71 0 -38 4 -64 9 -60 5 3 13 0 17 -6 4 -6 -1 -16 -10 -21 -9 -5 -16 -18 -16
-28 0 -11 -6 -20 -14 -20 -8 0 -17 -9 -20 -20 -3 -11 -9 -30 -12 -42 -5 -17
-3 -20 10 -15 11 4 15 3 11 -4 -4 -6 -13 -8 -20 -5 -25 9 -38 -21 -31 -71 5
-35 2 -51 -10 -64 -15 -17 -14 -20 7 -41 23 -22 23 -24 7 -41 -10 -9 -21 -17
-24 -17 -10 0 -34 -28 -34 -39 0 -6 5 -11 10 -11 6 0 10 4 10 9 0 5 16 19 36
31 31 20 39 21 62 10 15 -7 47 -14 72 -14 62 -2 204 -28 211 -39 4 -6 19 -5
38 1 21 8 40 8 57 2 29 -11 44 -6 44 16 0 8 5 14 10 14 6 0 10 -4 10 -9 0 -19
39 2 83 44 43 41 67 90 67 140 0 29 33 120 45 123 6 2 13 -7 17 -20 4 -17 6
-12 7 20 1 23 4 42 7 42 11 0 33 -34 34 -52 0 -10 9 -22 20 -28 11 -6 20 -17
20 -25 0 -7 6 -20 14 -27 7 -8 16 -36 20 -63 4 -28 16 -65 27 -83 11 -19 17
-37 14 -42 -3 -5 7 -24 23 -42 49 -56 56 -77 36 -99 -16 -18 -16 -19 14 -19
17 0 33 6 35 13 4 7 9 3 13 -11 5 -18 9 -20 15 -10 13 19 29 -8 29 -48 0 -28
-3 -31 -25 -26 -14 2 -25 9 -25 14 0 5 -5 6 -10 3 -16 -10 -80 17 -80 33 0 12
-3 12 -15 2 -9 -7 -28 -14 -44 -15 -15 -1 -44 -10 -64 -20 -20 -9 -49 -18 -64
-18 -16 -1 -31 -6 -35 -11 -4 -6 -16 -6 -31 1 -14 7 -53 10 -86 8 -52 -3 -62
-1 -71 15 -16 30 -12 54 15 90 49 67 23 78 -73 30 -34 -16 -70 -31 -80 -33
-22 -3 -92 -48 -92 -59 0 -4 -14 -15 -31 -23 -16 -9 -38 -24 -48 -33 -54 -52
-92 -80 -142 -105 -61 -30 -82 -28 -113 11 -13 17 -25 22 -41 18 -19 -5 -23
-2 -23 17 1 72 -6 127 -19 131 -8 3 -13 21 -13 45 0 22 -4 42 -9 45 -14 9 -19
80 -10 127 5 24 12 71 15 104 5 64 29 151 45 160 5 4 9 14 9 24 0 10 9 30 20
44 11 14 20 37 20 51 0 14 5 26 11 26 6 0 9 9 6 20 -3 11 -1 20 3 20 5 0 11
18 15 40 7 41 25 56 25 21 0 -11 5 -23 11 -27 7 -4 10 4 9 22 -1 16 -2 32 -1
37 2 11 21 9 21 -3z m284 2 c2 -4 -6 -9 -20 -10 -13 -1 -24 3 -24 8 0 12 37
14 44 2z m926 -172 c11 -8 7 -9 -15 -4 -37 8 -45 14 -19 14 10 0 26 -5 34 -10z
m-1470 -673 c0 -20 -25 1 -28 24 -2 23 -2 23 13 5 8 -11 15 -24 15 -29z m-50
23 c0 -5 -2 -10 -4 -10 -3 0 -8 5 -11 10 -3 6 -1 10 4 10 6 0 11 -4 11 -10z
m855 -330 c7 -23 25 -27 25 -5 0 8 7 15 15 15 8 0 18 0 23 1 4 0 10 -10 14
-23 l6 -23 7 23 c7 20 12 22 39 17 17 -4 37 -14 45 -23 10 -13 15 -14 18 -4 6
16 68 16 81 -1 25 -30 -3 -39 -114 -36 -60 1 -119 6 -130 10 -14 5 -27 2 -37
-8 -22 -22 -37 -7 -37 38 0 32 3 39 19 39 11 0 23 -9 26 -20z m-70 -30 c0 -13
-6 -25 -12 -27 -16 -6 -27 21 -19 43 9 23 31 11 31 -16z m409 4 c8 -21 -1 -34
-25 -34 -20 0 -23 8 -13 34 8 21 30 21 38 0z m56 -19 c0 -36 -5 -41 -30 -25
-12 7 -12 12 0 34 19 36 30 32 30 -9z m-522 -87 c-2 -6 18 -23 44 -37 26 -14
53 -32 60 -40 11 -11 8 -13 -17 -8 -16 4 -24 4 -17 1 10 -5 10 -9 1 -20 -6 -7
-8 -25 -5 -38 7 -30 0 -36 -38 -29 -29 6 -70 58 -59 76 4 6 -5 7 -23 3 -22 -5
-25 -4 -12 4 13 8 15 16 8 41 -6 21 -5 35 3 45 15 16 58 19 55 2z m312 3 c0
-4 -11 -6 -25 -3 -14 2 -25 6 -25 8 0 2 11 4 25 4 14 0 25 -4 25 -9z m95 -1
c-44 -11 -75 -11 -75 0 0 6 23 9 53 9 44 -1 48 -2 22 -9z m-301 -231 c-5 -9
41 -39 60 -39 7 0 29 -14 47 -32 31 -29 32 -32 14 -36 -11 -2 -24 -8 -29 -13
-14 -13 -50 -11 -64 3 -10 10 -15 10 -21 -1 -7 -10 -10 -10 -16 -1 -4 7 -2 16
5 20 15 10 4 30 -16 30 -20 0 -47 27 -39 40 3 5 1 10 -4 10 -18 0 -12 18 7 23
25 6 61 4 56 -4z m-78 -58 c-3 -5 -15 -7 -26 -4 -28 7 -25 13 6 13 14 0 23 -4
20 -9z m401 -753 c-3 -8 -6 -5 -6 6 -1 11 2 17 5 13 3 -3 4 -12 1 -19z m-36
-101 c-10 -9 -11 -8 -5 6 3 10 9 15 12 12 3 -3 0 -11 -7 -18z"/>
<path d="M1920 2816 c0 -9 7 -16 16 -16 9 0 14 5 12 12 -6 18 -28 21 -28 4z"/>
<path d="M1682 2560 c0 -14 2 -19 5 -12 2 6 2 18 0 25 -3 6 -5 1 -5 -13z"/>
<path d="M1440 2309 c0 -5 5 -7 10 -4 6 3 10 8 10 11 0 2 -4 4 -10 4 -5 0 -10
-5 -10 -11z"/>
<path d="M1900 1431 c0 -6 5 -13 10 -16 6 -3 10 1 10 9 0 9 -4 16 -10 16 -5 0
-10 -4 -10 -9z"/>
<path d="M1920 1384 c0 -8 5 -12 10 -9 6 4 8 11 5 16 -9 14 -15 11 -15 -7z"/>
<path d="M2736 2895 c-3 -8 -1 -15 4 -15 6 0 10 7 10 15 0 8 -2 15 -4 15 -2 0
-6 -7 -10 -15z"/>
<path d="M2831 2654 c0 -11 3 -14 6 -6 3 7 2 16 -1 19 -3 4 -6 -2 -5 -13z"/>
<path d="M1094 2208 c-3 -5 -10 -33 -14 -61 -5 -29 -11 -65 -14 -82 -3 -16 -3
-22 0 -12 3 10 12 16 19 14 17 -7 35 12 28 29 -3 8 0 20 6 27 6 8 13 29 16 49
5 30 3 36 -15 41 -11 3 -23 1 -26 -5z"/>
<path d="M1070 2003 c0 -18 2 -33 4 -33 9 0 13 39 5 51 -6 10 -9 4 -9 -18z"/>
<path d="M3987 1278 c-4 -244 -10 -631 -14 -860 -6 -386 -5 -418 10 -418 16 0
17 65 17 860 0 473 -2 860 -3 860 -2 0 -7 -199 -10 -442z"/>
</g>
</svg>
