<?xml version="1.0" standalone="no"?>
<!DOCTYPE svg PUBLIC "-//W3C//DTD SVG 20010904//EN"
 "http://www.w3.org/TR/2001/REC-SVG-20010904/DTD/svg10.dtd">
<svg version="1.0" xmlns="http://www.w3.org/2000/svg"
 width="225.000000pt" height="225.000000pt" viewBox="0 0 225.000000 225.000000"
 preserveAspectRatio="xMidYMid meet">

<g transform="translate(0.000000,225.000000) scale(0.100000,-0.100000)"
fill="#000000" stroke="none">
<path d="M1020 2084 c-61 -56 -135 -173 -163 -261 -42 -128 -54 -215 -57 -397
0 -24 -9 -16 -15 12 -2 11 -9 30 -15 42 -6 12 -9 28 -6 35 3 8 0 15 -6 17 -7
3 -14 52 -18 124 l-7 119 -1 -100 c-1 -55 5 -129 12 -165 9 -42 11 -69 4 -75
-6 -6 -7 -3 -2 9 6 15 4 18 -9 13 -11 -4 -21 6 -36 36 -20 40 -21 40 -21 14 0
-19 -4 -27 -12 -25 -22 7 -37 69 -37 151 -1 50 -5 77 -12 77 -9 0 -10 -27 -4
-97 5 -54 8 -111 8 -126 0 -16 3 -23 7 -17 5 8 9 7 13 -5 5 -11 3 -14 -5 -9
-8 5 -9 2 -5 -10 4 -10 7 -20 7 -22 0 -3 5 -2 12 2 7 4 8 3 4 -4 -4 -7 -9 -12
-11 -12 -12 0 -55 82 -49 92 5 7 3 8 -6 3 -10 -6 -12 -4 -7 9 4 10 3 15 -3 11
-5 -3 -12 7 -16 22 -9 35 -34 74 -34 53 0 -17 58 -159 72 -177 5 -7 5 -14 -1
-18 -6 -3 -13 6 -17 20 -3 14 -10 25 -15 25 -5 0 -8 6 -7 12 2 7 -7 14 -19 16
-19 3 -23 -1 -23 -23 0 -21 -4 -26 -16 -21 -13 5 -15 -1 -13 -38 3 -32 1 -42
-7 -35 -6 5 11 -34 37 -87 27 -54 51 -113 55 -133 4 -22 17 -46 36 -61 29 -25
29 -27 20 -78 -5 -28 -7 -54 -4 -57 3 -3 28 -5 56 -5 40 0 61 -7 96 -30 25
-16 52 -30 61 -30 8 0 19 -4 25 -9 5 -5 56 -24 114 -41 l105 -33 -35 -16 c-19
-9 -38 -20 -41 -25 -4 -4 -9 -4 -13 2 -3 6 9 15 27 22 l32 12 -25 10 c-14 5
-34 11 -45 12 -11 1 -31 8 -43 15 -13 7 -26 11 -28 8 -2 -2 7 -10 21 -17 21
-11 25 -21 25 -57 0 -24 -4 -43 -10 -43 -5 0 -7 6 -4 14 8 20 -26 48 -52 43
-13 -2 -21 0 -18 4 3 5 0 17 -5 26 -10 17 -10 17 -11 1 0 -10 -4 -18 -9 -18
-4 0 -7 12 -5 27 2 16 1 20 -2 11 -6 -21 -20 -23 -28 -5 -3 6 -3 -1 1 -18 3
-16 10 -34 14 -40 14 -15 10 -25 -8 -25 -22 0 35 -37 69 -45 27 -7 78 -44 61
-45 -6 0 -15 5 -18 10 -3 6 -12 10 -18 10 -7 0 -6 -4 3 -10 18 -11 13 -16 -22
-25 -23 -6 -29 -3 -39 19 -7 14 -27 35 -46 46 -28 16 -38 18 -56 8 -19 -10
-21 -9 -9 4 10 13 10 18 1 24 -7 4 -15 2 -17 -4 -2 -7 -8 -12 -13 -12 -4 0 -6
6 -3 13 3 9 -4 13 -26 11 -16 -1 -30 2 -30 7 0 5 5 9 12 9 6 0 9 3 6 6 -4 3
-15 1 -26 -5 -15 -8 -21 -7 -25 4 -4 10 -1 12 11 9 14 -5 14 -4 3 4 -8 6 -20
8 -28 5 -7 -3 -13 -1 -13 5 0 15 -51 29 -82 23 -17 -4 -37 -21 -53 -46 l-27
-40 40 39 41 39 45 -27 c25 -15 46 -31 46 -36 0 -6 7 -10 15 -10 14 0 17 -5
19 -40 1 -8 13 -21 29 -28 26 -12 38 -42 17 -42 -5 0 -6 -7 -3 -17 4 -11 3
-14 -5 -9 -8 5 -11 1 -10 -11 4 -52 -2 -59 -23 -24 -11 18 -23 30 -26 27 -4
-4 -28 16 -55 44 -26 28 -48 49 -48 48 0 -6 47 -94 73 -139 18 -30 25 -53 20
-65 -6 -16 -5 -17 9 -6 14 11 16 10 13 -10 -4 -35 -16 -59 -26 -52 -5 3 -18
23 -30 45 -23 46 -42 44 -27 -4 5 -17 11 -41 12 -52 0 -10 9 -27 19 -37 18
-19 24 -74 7 -63 -6 4 -10 -5 -10 -21 0 -26 1 -26 24 -11 24 16 24 15 40 -24
20 -50 20 -52 -4 -46 -13 3 -24 -1 -30 -14 -9 -16 -7 -19 11 -19 18 0 20 -2 9
-15 -7 -9 -19 -14 -27 -11 -17 7 -17 -8 0 -23 10 -8 17 -7 25 1 9 9 12 9 12 1
0 -28 -56 -21 -65 8 -4 11 -17 26 -30 35 -13 9 -27 29 -30 45 -4 16 -11 29
-16 29 -12 0 -12 -17 1 -25 6 -3 10 -11 10 -18 0 -6 -8 0 -17 13 -10 14 -17
29 -15 33 1 5 -2 6 -7 3 -5 -3 -16 6 -26 20 l-16 25 28 -17 28 -18 -25 25
c-13 13 -28 24 -32 24 -4 0 -13 9 -21 19 -9 12 -20 17 -31 13 -15 -6 -15 -9 0
-41 9 -19 27 -40 40 -47 26 -13 32 -29 12 -29 -6 0 -3 -7 8 -16 18 -15 18 -15
-11 -9 -16 3 -38 16 -48 28 -16 20 -17 20 -10 2 6 -18 5 -19 -12 -5 -10 8 -16
10 -12 3 4 -6 3 -14 -2 -17 -5 -4 -12 1 -14 9 -3 11 -4 10 -3 -2 1 -10 8 -17
14 -15 15 3 15 -18 1 -55 -6 -17 -7 -29 -1 -31 6 -2 8 -11 5 -21 -3 -12 8 -28
33 -50 l39 -31 287 0 287 0 -13 44 c-13 41 -12 80 1 116 3 8 7 28 9 43 5 37
44 127 55 127 5 0 9 -26 9 -58 0 -33 7 -80 14 -107 8 -26 15 -51 14 -54 0 -3
0 -30 1 -58 l1 -53 45 0 c49 0 52 4 31 55 -8 18 -12 36 -9 38 6 6 -17 89 -29
101 -11 13 -10 68 2 86 5 8 10 11 11 5 1 -5 5 4 8 20 7 28 8 25 20 -30 18 -85
49 -171 81 -225 l26 -45 269 -3 c186 -2 272 1 279 9 8 8 6 10 -8 7 -10 -1 -21
3 -23 10 -3 6 0 12 6 12 7 0 9 10 6 23 -3 12 2 30 9 40 19 25 56 14 57 -16 0
-12 2 -35 2 -52 l2 -30 77 -1 c70 0 77 1 75 18 -5 32 -44 74 -78 84 -28 8 -34
15 -36 39 -2 21 0 26 7 15 5 -8 12 -11 17 -7 10 11 13 118 3 112 -4 -3 -11 2
-14 11 -3 8 -2 12 3 9 5 -3 12 -1 16 5 3 5 1 10 -4 10 -6 0 -11 13 -11 30 0
21 -4 28 -14 24 -8 -3 -17 -12 -20 -20 -3 -9 -1 -12 4 -9 6 4 10 -10 10 -34 0
-23 -4 -41 -10 -41 -5 0 -10 -6 -10 -14 0 -19 -13 -27 -28 -17 -7 4 -10 15 -6
24 3 9 10 15 14 12 5 -3 6 4 3 16 -3 11 -9 17 -12 12 -10 -13 -81 -16 -81 -3
0 7 6 10 13 7 35 -13 94 50 68 76 -6 6 -9 2 -8 -9 2 -24 -40 -32 -49 -9 -5 12
-9 13 -20 4 -12 -9 -13 -6 -8 22 l6 34 -22 -30 c-12 -16 -20 -22 -17 -13 18
55 30 105 28 117 -1 7 2 10 9 6 8 -5 7 -1 -1 13 -10 16 -9 31 4 79 17 61 21
112 11 149 -5 20 -9 19 -88 -22 -48 -25 -129 -56 -195 -73 -116 -31 -166 -54
-155 -73 4 -6 1 -9 -7 -6 -8 3 -22 1 -33 -4 -15 -8 -16 -12 -5 -19 11 -7 10
-9 -3 -9 -10 0 -18 4 -18 9 0 13 -37 2 -51 -15 -9 -12 -9 -13 4 -9 8 4 18 2
22 -4 8 -14 -28 -27 -85 -30 -24 -1 -46 -4 -49 -6 -2 -2 -13 0 -24 6 -13 8
-17 8 -13 1 4 -6 -2 -10 -14 -9 -29 2 -25 16 8 23 83 18 191 71 222 109 7 9
29 15 51 15 40 0 238 59 294 88 41 20 45 28 45 92 0 75 -12 90 -34 43 l-18
-38 -14 28 c-8 15 -17 27 -19 27 -3 0 -14 -18 -25 -39 -30 -60 -39 -57 -19 6
11 31 19 75 18 97 l-1 41 -9 -44 c-4 -24 -14 -50 -21 -58 -13 -16 -198 -111
-276 -143 -26 -10 -64 -26 -84 -34 -21 -9 -38 -14 -38 -12 0 8 72 46 87 46 42
0 152 81 218 160 78 94 94 133 67 169 -29 40 -44 38 -27 -3 23 -54 17 -77 -6
-26 -11 24 -27 53 -36 62 -15 17 -17 16 -35 -23 l-18 -42 -55 7 c-35 4 -55 2
-55 -4 0 -5 -5 -10 -10 -10 -6 0 -6 7 1 18 12 20 81 62 101 62 31 1 88 90 149
235 33 78 34 83 32 208 -1 91 -5 134 -16 150 -7 12 -26 54 -41 92 -42 107 -90
186 -138 230 -23 21 -47 38 -51 37 -5 -1 -6 2 -3 7 17 27 -127 80 -216 81 -30
0 -47 -8 -78 -36z m230 -94 c-7 -4 9 -11 34 -14 26 -4 66 -21 93 -40 57 -39
71 -68 15 -31 -73 48 -128 17 -217 -121 -76 -117 -165 -224 -228 -272 -29 -23
-57 -42 -60 -42 -3 0 -8 26 -10 58 -2 33 -4 13 -5 -51 -2 -98 0 -112 24 -158
15 -27 24 -52 22 -55 -3 -3 -17 1 -32 7 -26 12 -46 58 -46 106 0 12 -4 25 -10
28 -12 8 -12 107 0 203 13 102 57 189 146 288 30 32 109 83 139 88 15 3 29 7
31 8 1 2 28 4 59 4 31 1 51 -2 45 -6z m56 -89 c-3 -5 1 -12 10 -15 9 -4 13 -2
8 5 -9 16 33 -8 57 -32 10 -10 23 -19 28 -19 5 0 15 -25 22 -56 9 -41 15 -51
20 -38 3 11 3 21 -1 24 -6 4 -20 70 -14 70 13 0 105 -230 97 -243 -3 -6 -1 -7
5 -3 7 4 12 4 12 0 0 -9 -40 -74 -46 -74 -14 0 -36 86 -38 142 0 38 -2 68 -4
68 -1 0 -6 -9 -10 -19 -6 -18 -10 -17 -55 16 -26 20 -57 54 -69 77 -11 22 -30
52 -42 65 -11 13 -16 21 -10 18 7 -4 14 0 18 8 3 8 8 15 11 15 4 0 4 -4 1 -9z
m-67 -107 c18 11 67 -24 90 -65 l21 -37 -35 -21 c-41 -24 -44 -37 -10 -43 13
-3 22 -1 19 3 -7 12 73 31 97 24 15 -5 17 -10 10 -19 -6 -7 -7 -16 -3 -21 4
-4 -10 -5 -31 -1 -26 5 -37 4 -32 -3 3 -6 0 -8 -9 -5 -9 3 -21 -6 -32 -25 -10
-16 -21 -28 -24 -26 -4 3 -2 -16 3 -40 10 -44 11 -45 50 -43 32 1 43 7 56 30
17 30 27 36 28 16 0 -7 6 -43 12 -79 12 -75 0 -133 -40 -191 -46 -65 -143
-169 -164 -174 -28 -7 -184 51 -234 87 -35 25 -77 82 -69 92 2 2 -2 10 -9 18
-6 8 -20 49 -31 91 l-20 78 22 -12 c11 -7 25 -11 30 -10 4 2 14 -2 20 -8 7 -5
16 -7 19 -3 4 3 -1 12 -11 20 -16 14 -16 14 3 8 11 -4 27 -8 35 -10 8 -1 9 0
3 2 -22 7 -14 20 15 26 33 6 39 2 23 -17 -7 -8 -8 -17 -3 -20 12 -7 22 27 22
73 0 33 0 33 25 17 32 -21 34 -20 31 7 -5 50 -32 60 -89 31 l-32 -16 40 41
c32 32 47 40 77 41 46 0 68 8 68 26 0 10 -13 14 -42 14 -24 0 -38 4 -32 8 5 4
25 32 43 62 40 66 64 91 72 77 4 -5 12 -6 18 -3z m165 -237 c7 -10 7 -25 1
-43 -16 -45 -30 -38 -30 16 0 50 9 59 29 27z m-40 -62 c-4 -8 -15 -15 -25 -15
-21 0 -26 16 -6 23 24 10 36 7 31 -8z m-807 -87 c-3 -7 -5 -2 -5 12 0 14 2 19
5 13 2 -7 2 -19 0 -25z m54 -31 c-10 -9 -11 -8 -5 6 3 10 9 15 12 12 3 -3 0
-11 -7 -18z m-61 -11 c0 -2 -7 -7 -16 -10 -8 -3 -12 -2 -9 4 6 10 25 14 25 6z
m134 -4 c3 -5 -1 -9 -9 -9 -8 0 -12 4 -9 9 3 4 7 8 9 8 2 0 6 -4 9 -8z m776
-345 c-1 -39 -2 -41 -15 -23 -23 30 -18 85 6 70 5 -3 9 -24 9 -47z m-539 -24
c13 -16 12 -17 -3 -4 -10 7 -18 15 -18 17 0 8 8 3 21 -13z m79 -193 c12 -8 11
-10 -7 -10 -13 0 -23 5 -23 10 0 13 11 13 30 0z m117 -16 c-3 -3 -12 -4 -19
-1 -8 3 -5 6 6 6 11 1 17 -2 13 -5z m-80 -80 c-3 -3 -12 -4 -19 -1 -8 3 -5 6
6 6 11 1 17 -2 13 -5z m-242 -14 c3 -6 -1 -7 -9 -4 -18 7 -21 14 -7 14 6 0 13
-4 16 -10z m45 -15 c0 -2 -6 -5 -13 -8 -8 -3 -14 1 -14 8 0 7 6 11 14 8 7 -3
13 -6 13 -8z m147 -51 c-3 -3 -12 -4 -19 -1 -8 3 -5 6 6 6 11 1 17 -2 13 -5z
m-240 -36 c-2 -7 0 -26 4 -42 6 -19 5 -26 -1 -20 -16 16 -24 74 -10 74 6 0 10
-6 7 -12z m-37 -8 c0 -5 -5 -10 -11 -10 -5 0 -7 5 -4 10 3 6 8 10 11 10 2 0 4
-4 4 -10z m1040 -29 c0 -6 -4 -13 -10 -16 -5 -3 -10 1 -10 9 0 9 5 16 10 16 6
0 10 -4 10 -9z m-464 -47 c18 -14 18 -14 -6 -3 -31 14 -36 19 -24 19 6 0 19
-7 30 -16z m-125 -63 c-11 -7 -10 -11 5 -20 17 -11 16 -11 -6 -5 -14 3 -27 8
-30 11 -5 5 21 23 35 23 6 0 4 -4 -4 -9z m-150 -73 c-40 -87 -61 -156 -68
-222 -5 -47 -11 -61 -35 -81 -36 -31 -44 -31 -59 -2 -13 23 -44 54 -62 60 -7
2 -7 20 1 63 6 32 14 82 17 110 6 48 8 51 31 46 20 -3 35 4 64 33 39 38 60 40
60 5 0 -10 4 -21 9 -24 4 -3 6 6 3 19 -4 21 1 28 29 40 19 8 35 14 36 15 2 0
-10 -28 -26 -62z m629 -58 c0 -5 -4 -11 -10 -15 -5 -3 -7 -12 -3 -20 6 -17 2
-18 -21 -9 -9 3 -16 10 -16 16 0 5 5 6 12 2 8 -5 9 -2 5 10 -5 11 -3 15 5 10
7 -5 9 -2 5 9 -4 11 -2 14 9 10 7 -3 14 -9 14 -13z m30 -20 c0 -5 -7 -10 -15
-10 -8 0 -15 5 -15 10 0 6 7 10 15 10 8 0 15 -4 15 -10z m-1242 -45 c-3 -3 -9
2 -12 12 -6 14 -5 15 5 6 7 -7 10 -15 7 -18z m1146 9 c8 -20 -3 -84 -14 -81
-4 1 -17 -9 -30 -23 -17 -20 -20 -21 -14 -5 5 11 8 41 9 66 0 40 2 45 20 42
17 -4 17 -3 5 6 -13 9 -13 11 1 11 9 0 20 -7 23 -16z m259 -9 c-3 -9 -8 -14
-10 -11 -3 3 -2 9 2 15 9 16 15 13 8 -4z m-1153 -16 c0 -6 -4 -7 -10 -4 -5 3
-10 11 -10 16 0 6 5 7 10 4 6 -3 10 -11 10 -16z m955 -38 c2 -28 -1 -38 -6
-30 -5 8 -9 24 -9 37 0 12 -7 25 -15 28 -8 4 -15 10 -15 15 0 4 10 5 21 0 17
-6 22 -17 24 -50z m-124 12 c-12 -20 -14 -14 -5 12 4 9 9 14 11 11 3 -2 0 -13
-6 -23z m-88 -48 c-7 -21 -12 -19 -10 4 0 11 5 18 9 15 4 -3 5 -11 1 -19z m79
0 c-2 -14 -6 -25 -8 -25 -2 0 -4 11 -4 25 0 14 4 25 9 25 4 0 6 -11 3 -25z
m-1042 -17 c0 -5 -7 -8 -16 -8 -11 0 -15 -6 -11 -20 5 -19 4 -19 -23 3 -15 12
-25 26 -22 32 3 5 7 4 10 -3 6 -20 29 -13 36 11 5 18 8 20 16 7 5 -8 10 -18
10 -22z m1398 7 c-3 -3 -9 2 -12 12 -6 14 -5 15 5 6 7 -7 10 -15 7 -18z m-28
-5 c0 -5 -7 -10 -16 -10 -8 0 -12 5 -9 10 3 6 10 10 16 10 5 0 9 -4 9 -10z
m-1047 -60 c-7 -28 -13 -25 -13 6 0 14 4 23 9 20 5 -3 7 -15 4 -26z m1133 12
c1 -7 0 -8 -3 -2 -3 8 -9 7 -19 -1 -8 -6 -14 -7 -14 -2 0 24 31 28 36 5z
m-481 -2 c3 -5 1 -10 -4 -10 -6 0 -11 5 -11 10 0 6 2 10 4 10 3 0 8 -4 11 -10z
m536 -32 c8 2 5 -6 -8 -19 -29 -29 -46 -15 -37 30 7 32 7 32 19 9 6 -13 18
-22 26 -20z m-555 -3 c-8 -8 -17 -15 -20 -15 -3 0 -3 7 0 15 4 8 13 15 21 15
12 0 12 -2 -1 -15z m590 -17 c4 -7 3 -8 -4 -4 -7 4 -12 2 -12 -5 0 -7 -3 -10
-6 -6 -6 5 3 27 11 27 2 0 7 -5 11 -12z"/>
<path d="M1080 1591 c0 -6 4 -13 10 -16 6 -3 7 1 4 9 -7 18 -14 21 -14 7z"/>
<path d="M1261 1300 c-10 -6 8 -24 27 -27 6 -2 16 6 22 17 9 18 8 20 -15 18
-14 -1 -30 -5 -34 -8z"/>
<path d="M1317 1239 c-9 -5 -22 -7 -29 -3 -6 4 -8 3 -4 -4 10 -16 -93 -26
-128 -12 -16 6 -31 8 -34 5 -11 -11 9 -17 70 -22 52 -4 72 -2 106 16 23 12 42
24 42 26 0 7 -2 6 -23 -6z"/>
<path d="M1248 1163 c7 -3 16 -2 19 1 4 3 -2 6 -13 5 -11 0 -14 -3 -6 -6z"/>
<path d="M622 1765 c0 -16 2 -22 5 -12 2 9 2 23 0 30 -3 6 -5 -1 -5 -18z"/>
<path d="M781 1484 c0 -11 3 -14 6 -6 3 7 2 16 -1 19 -3 4 -6 -2 -5 -13z"/>
<path d="M492 1470 c0 -14 2 -19 5 -12 2 6 2 18 0 25 -3 6 -5 1 -5 -13z"/>
<path d="M815 850 c-3 -5 -1 -10 4 -10 6 0 11 5 11 10 0 6 -2 10 -4 10 -3 0
-8 -4 -11 -10z"/>
<path d="M865 670 c-3 -5 -1 -10 5 -10 6 0 8 -5 4 -12 -4 -7 -3 -8 4 -4 6 4 9
13 5 21 -6 18 -10 19 -18 5z"/>
<path d="M1776 423 c-6 -14 -5 -15 5 -6 7 7 10 15 7 18 -3 3 -9 -2 -12 -12z"/>
<path d="M561 304 c0 -11 3 -14 6 -6 3 7 2 16 -1 19 -3 4 -6 -2 -5 -13z"/>
<path d="M1870 281 c0 -5 5 -13 10 -16 6 -3 10 -2 10 4 0 5 -4 13 -10 16 -5 3
-10 2 -10 -4z"/>
<path d="M531 262 c-11 -21 -4 -62 11 -62 5 0 4 8 -1 19 -10 18 -6 31 10 31 5
0 6 -8 3 -17 -5 -17 -5 -17 6 0 9 13 8 21 -4 32 -13 14 -16 13 -25 -3z"/>
<path d="M588 210 c-18 -16 -28 -30 -21 -30 7 0 17 9 23 20 6 11 20 20 30 20
11 0 20 5 20 10 0 18 -19 11 -52 -20z"/>
<path d="M1813 85 c-3 -9 -3 -18 0 -22 10 -10 37 6 37 22 0 20 -29 20 -37 0z"/>
<path d="M265 62 c17 -41 18 -55 4 -46 -8 5 -18 9 -24 9 -5 1 -18 5 -28 9 -22
10 -29 4 -21 -17 4 -12 24 -15 100 -16 93 0 95 1 72 18 -13 9 -42 27 -66 38
-37 18 -42 19 -37 5z m70 -32 c3 -5 1 -10 -4 -10 -6 0 -11 5 -11 10 0 6 2 10
4 10 3 0 8 -4 11 -10z"/>
<path d="M230 45 c7 -9 15 -13 17 -11 7 7 -7 26 -19 26 -6 0 -6 -6 2 -15z"/>
</g>
</svg>
