<?xml version="1.0" standalone="no"?>
<!DOCTYPE svg PUBLIC "-//W3C//DTD SVG 20010904//EN"
 "http://www.w3.org/TR/2001/REC-SVG-20010904/DTD/svg10.dtd">
<svg version="1.0" xmlns="http://www.w3.org/2000/svg"
 width="500.000000pt" height="500.000000pt" viewBox="0 0 500.000000 500.000000"
 preserveAspectRatio="xMidYMid meet">

<g transform="translate(0.000000,500.000000) scale(0.100000,-0.100000)"
fill="#000000" stroke="none">
<path d="M2362 4318 c-10 -13 -14 -36 -36 -183 -5 -39 -5 -38 11 10 16 47 18
48 21 20 2 -16 13 -40 24 -52 27 -29 45 -19 77 40 14 25 33 48 43 50 24 7 24
55 1 64 -10 4 -28 17 -40 30 -12 12 -28 20 -36 17 -8 -3 -18 -1 -22 5 -8 15
-30 14 -43 -1z m103 -78 c9 -15 -6 -80 -19 -80 -28 1 -39 18 -32 54 5 26 12
36 26 36 10 0 22 -4 25 -10z m-65 -10 c0 -5 -4 -10 -10 -10 -5 0 -10 5 -10 10
0 6 5 10 10 10 6 0 10 -4 10 -10z"/>
<path d="M3158 4259 c-23 -13 -23 -42 -1 -60 15 -13 15 -12 3 8 -11 18 -12 24
-1 37 29 34 70 1 49 -39 -10 -18 -10 -19 5 -6 21 17 22 35 1 55 -18 18 -32 20
-56 5z"/>
<path d="M3481 4214 c0 -11 3 -14 6 -6 3 7 2 16 -1 19 -3 4 -6 -2 -5 -13z"/>
<path d="M3428 4173 c6 -2 18 -2 25 0 6 3 1 5 -13 5 -14 0 -19 -2 -12 -5z"/>
<path d="M3471 4134 c0 -11 3 -14 6 -6 3 7 2 16 -1 19 -3 4 -6 -2 -5 -13z"/>
<path d="M2230 4062 c-43 -36 -60 -79 -60 -154 0 -26 -11 -82 -24 -125 -38
-123 -39 -131 -18 -142 24 -13 148 -8 231 9 56 12 72 11 135 -5 91 -23 163
-59 171 -86 4 -11 9 -18 12 -16 2 3 0 15 -7 26 -14 28 -89 64 -177 87 -43 11
-73 24 -73 31 0 17 24 17 38 0 9 -10 35 -11 139 -1 70 6 177 14 236 17 l108 6
16 -34 c13 -27 14 -41 5 -72 -6 -21 -13 -49 -16 -63 -5 -21 -4 -20 8 5 8 17
18 50 22 73 5 36 3 49 -16 75 -22 29 -23 32 -7 60 10 16 38 68 63 115 26 48
53 96 60 107 8 11 14 28 14 38 0 18 -6 19 -103 12 -174 -11 -161 -4 -235 -135
-35 -63 -65 -121 -65 -127 0 -7 -11 -13 -25 -13 -13 0 -35 -9 -49 -19 -13 -11
-44 -23 -68 -26 -49 -8 -161 7 -202 27 -28 13 -77 77 -67 87 10 10 87 30 96
25 4 -3 8 -11 8 -18 0 -17 40 -43 76 -51 17 -3 22 -2 13 2 -13 7 -13 12 6 45
l21 37 47 -40 c61 -53 60 -63 -4 -56 -59 7 -61 4 -7 -11 32 -9 41 -7 62 9 17
14 34 18 53 14 24 -5 25 -5 10 5 -10 7 -27 10 -37 7 -11 -3 -26 3 -36 14 -16
18 -16 20 6 44 l24 25 25 -23 c14 -13 35 -29 46 -36 11 -8 1 3 -22 23 -23 20
-40 43 -37 50 6 17 -64 107 -108 137 -18 13 -35 26 -38 29 -6 6 -58 30 -66 30
-3 0 -2 -4 1 -10 9 -15 -77 -12 -97 4 -10 7 -15 16 -12 19 4 3 -4 5 -16 4 -12
-1 -39 -16 -60 -35z m-13 -104 c-3 -7 -5 -2 -5 12 0 14 2 19 5 13 2 -7 2 -19
0 -25z m151 -58 l0 -25 -8 25 c-4 14 -8 36 -8 50 l0 25 8 -25 c4 -14 8 -36 8
-50z m-120 -45 c0 -5 -6 4 -13 20 -8 17 -14 37 -14 45 0 8 7 -1 14 -20 7 -19
13 -39 13 -45z m647 5 c-21 -23 -35 -26 -35 -6 0 15 14 24 39 25 11 1 10 -4
-4 -19z m-240 -139 c-6 -5 -21 -12 -35 -16 -22 -7 -23 -6 -11 9 7 9 23 16 34
16 13 0 17 -4 12 -9z"/>
<path d="M3743 3989 c-17 -6 -23 -16 -23 -39 0 -33 -24 -50 -43 -31 -17 17
-32 13 -46 -12 -10 -18 -9 -28 2 -50 8 -15 17 -24 20 -21 3 4 -1 17 -10 31
-15 22 -15 26 0 40 13 13 19 14 31 4 25 -21 56 -4 56 30 0 39 27 50 51 21 23
-29 47 -28 61 3 7 16 19 25 34 25 18 0 24 -7 27 -32 l5 -33 -2 35 c-1 30 -5
35 -28 38 -22 3 -30 -2 -40 -22 -14 -32 -31 -33 -55 -2 -14 19 -22 22 -40 15z"/>
<path d="M1860 3976 c0 -1 5 -18 12 -36 10 -31 12 -32 25 -14 36 48 36 54 -2
54 -19 0 -35 -2 -35 -4z m40 -26 c-6 -11 -12 -20 -14 -20 -2 0 -6 9 -9 20 -4
15 0 20 14 20 17 0 18 -3 9 -20z"/>
<path d="M3960 3945 c-7 -8 -19 -15 -28 -15 -8 0 -12 -3 -9 -7 4 -3 18 0 32 7
29 15 58 -1 48 -27 -4 -11 -2 -14 5 -9 17 10 15 31 -6 49 -23 21 -26 21 -42 2z"/>
<path d="M1700 3880 c-9 -6 -10 -10 -3 -10 6 0 15 5 18 10 8 12 4 12 -15 0z"/>
<path d="M3994 3867 c3 -10 6 -21 6 -23 0 -2 14 -4 30 -4 40 0 51 -27 22 -51
-23 -18 -29 -44 -13 -53 5 -4 7 3 4 13 -3 13 3 25 20 36 23 14 24 20 15 41 -8
17 -19 24 -39 24 -16 0 -33 8 -39 18 -11 16 -11 16 -6 -1z"/>
<path d="M2018 3863 c7 -3 16 -2 19 1 4 3 -2 6 -13 5 -11 0 -14 -3 -6 -6z"/>
<path d="M3798 3863 c7 -3 16 -2 19 1 4 3 -2 6 -13 5 -11 0 -14 -3 -6 -6z"/>
<path d="M3864 3860 c16 -5 38 -17 50 -27 12 -10 9 -6 -6 10 -16 15 -38 27
-51 26 -19 -1 -18 -2 7 -9z"/>
<path d="M1635 3850 c-3 -6 1 -7 9 -4 18 7 21 14 7 14 -6 0 -13 -4 -16 -10z"/>
<path d="M1930 3845 c-19 -7 -28 -13 -20 -13 8 0 31 6 50 13 19 7 28 13 20 13
-8 0 -31 -6 -50 -13z"/>
<path d="M3731 3823 c-17 -21 -30 -47 -30 -58 2 -18 2 -17 6 3 2 12 19 38 37
57 19 19 30 35 25 35 -4 0 -21 -17 -38 -37z"/>
<path d="M1564 3815 c-10 -8 -14 -14 -9 -14 6 0 19 6 29 14 11 8 15 15 10 15
-6 0 -19 -7 -30 -15z"/>
<path d="M1835 3815 c-40 -18 -16 -19 26 0 19 8 27 14 19 14 -8 0 -28 -6 -45
-14z"/>
<path d="M3577 3813 c-16 -16 -6 -54 17 -65 14 -6 27 -20 29 -32 4 -18 4 -17
6 4 1 17 -6 28 -21 35 -13 6 -24 20 -26 32 -3 18 3 22 30 26 l33 4 -31 1 c-17
1 -34 -1 -37 -5z"/>
<path d="M3360 3796 c0 -21 -19 -30 -34 -17 -13 11 -46 5 -46 -8 0 -3 5 -13
11 -21 9 -13 10 -12 5 2 -7 23 11 33 31 17 13 -11 18 -10 32 7 9 12 23 23 31
27 10 3 7 6 -7 6 -14 1 -23 -5 -23 -13z"/>
<path d="M1470 3760 c-36 -22 -81 -54 -100 -71 -19 -17 2 -5 47 25 44 31 85
56 91 56 5 0 15 7 22 15 18 22 12 19 -60 -25z"/>
<path d="M1760 3785 c-14 -8 -20 -14 -15 -14 6 0 21 6 35 14 14 8 21 14 15 14
-5 0 -21 -6 -35 -14z"/>
<path d="M3434 3779 c-19 -22 -19 -22 4 -8 20 12 24 12 32 -1 5 -8 10 -10 10
-4 0 6 -6 17 -13 23 -11 8 -18 6 -33 -10z"/>
<path d="M3948 3773 c5 -21 7 -23 10 -9 2 10 0 22 -6 28 -6 6 -7 0 -4 -19z"/>
<path d="M1630 3722 c-154 -86 -284 -190 -380 -303 -41 -48 -24 -35 70 56 126
121 207 182 335 250 77 41 83 45 69 45 -5 0 -47 -22 -94 -48z"/>
<path d="M3466 3738 c3 -4 15 -8 28 -8 32 0 39 -10 20 -31 -17 -19 -11 -39 12
-39 8 0 14 -7 14 -15 0 -8 -6 -15 -14 -15 -20 0 -27 -26 -11 -40 20 -17 8 -42
-15 -30 -22 12 -30 4 -30 -32 0 -28 -13 -37 -25 -18 -10 17 -37 11 -42 -9 -3
-11 -12 -22 -22 -24 -13 -4 -13 -5 2 -6 11 -1 21 7 24 19 6 22 23 26 39 10 19
-19 41 -1 36 27 -4 23 -2 25 17 20 29 -7 45 22 24 45 -13 15 -13 18 6 28 27
14 28 50 1 50 -24 0 -26 13 -5 30 11 9 12 16 5 25 -12 14 -72 26 -64 13z"/>
<path d="M3333 3704 l-28 -25 32 22 c36 25 71 21 103 -13 24 -26 26 -59 4 -96
l-16 -27 21 24 c30 33 27 76 -8 112 -36 36 -71 37 -108 3z"/>
<path d="M3700 3711 c0 -14 16 -39 39 -62 34 -35 44 -39 87 -39 27 1 59 6 72
14 29 16 62 64 62 91 0 13 -8 4 -19 -22 -22 -47 -62 -73 -113 -73 -50 0 -81
21 -105 70 -18 34 -23 39 -23 21z"/>
<path d="M4066 3722 c7 -4 14 -18 17 -32 4 -21 4 -20 6 8 1 24 -3 32 -16 32
-12 0 -14 -3 -7 -8z"/>
<path d="M3230 3714 c0 -6 5 -15 11 -21 13 -13 4 -33 -17 -33 -21 0 -17 -38 6
-45 22 -7 25 -16 10 -31 -17 -17 0 -45 24 -42 15 2 22 -3 24 -20 4 -29 27 -39
48 -21 13 10 17 10 25 -2 5 -9 9 -10 9 -2 0 18 -20 27 -33 14 -19 -19 -40 -13
-34 9 5 21 -16 45 -33 35 -20 -12 -32 6 -15 25 15 16 15 19 0 34 -9 9 -21 16
-26 16 -17 0 -9 19 11 25 11 3 20 12 20 18 -1 15 -30 55 -30 41z"/>
<path d="M3583 3689 c-20 -20 5 -58 41 -61 32 -3 38 -20 21 -60 -10 -24 37
-47 60 -28 21 17 45 5 45 -24 0 -41 54 -50 72 -11 14 32 31 32 55 0 13 -18 22
-22 33 -15 13 8 12 10 -2 10 -10 0 -23 9 -30 20 -18 28 -46 25 -60 -5 -16 -35
-52 -30 -56 8 -4 34 -35 53 -52 32 -25 -30 -67 -7 -49 27 17 31 2 58 -32 58
-33 0 -48 22 -29 45 14 17 -1 20 -17 4z"/>
<path d="M3301 3642 c-1 -47 36 -82 86 -81 l38 2 -43 6 c-52 9 -63 19 -72 68
l-8 38 -1 -33z"/>
<path d="M4013 3651 c-10 -15 -9 -22 2 -31 8 -7 15 -19 15 -27 0 -8 5 -11 10
-8 7 4 5 14 -5 28 -20 29 -19 36 8 47 20 8 20 9 2 9 -11 1 -26 -8 -32 -18z"/>
<path d="M1202 3544 c-65 -66 -129 -135 -141 -154 -15 -22 -6 -15 25 20 64 73
149 158 203 203 25 20 42 40 38 43 -3 4 -60 -47 -125 -112z"/>
<path d="M2112 3583 c-2 -41 -3 -43 -33 -43 -36 0 -111 -42 -139 -77 -19 -24
-20 -39 -18 -232 l2 -206 6 208 5 209 28 24 c15 13 36 24 46 24 41 0 126 -21
141 -35 10 -9 33 -14 56 -14 25 1 30 3 14 6 -80 12 -91 25 -101 118 -5 52 -6
54 -7 18z"/>
<path d="M3943 3573 c-8 -3 -12 -20 -12 -41 2 -34 2 -34 6 -7 2 17 12 36 21
43 16 12 8 15 -15 5z"/>
<path d="M3994 3558 c12 -7 21 -7 28 0 6 6 0 10 -18 10 -23 0 -24 -2 -10 -10z"/>
<path d="M2690 3529 c-11 -8 -7 -9 18 -4 34 7 37 1 26 -42 -4 -14 -15 -23 -33
-25 -24 -3 -27 -9 -37 -68 -11 -60 -17 -150 -7 -105 2 11 6 30 9 43 7 35 24
26 19 -10 l-5 -33 14 35 c8 19 14 42 14 50 0 10 -1 11 -5 3 -2 -7 -11 -13 -19
-13 -16 0 -18 18 -5 39 7 11 13 12 23 4 10 -9 17 1 32 48 10 32 16 66 12 74
-6 17 -34 19 -56 4z"/>
<path d="M1586 3505 c-3 -9 -6 -22 -5 -28 0 -7 4 -2 9 11 12 27 40 29 40 2 0
-11 4 -20 10 -20 5 0 6 9 1 23 -10 27 -46 35 -55 12z"/>
<path d="M2909 3458 c-13 -29 -46 -86 -74 -128 -71 -107 -89 -137 -75 -123 7
6 29 35 50 65 24 34 44 53 56 52 10 -1 48 -4 84 -7 l65 -6 -74 14 c-84 16 -90
20 -70 40 15 16 69 12 244 -14 39 -6 126 -17 195 -26 69 -9 190 -24 270 -35
80 -11 204 -26 275 -35 321 -40 353 -46 382 -73 l28 -26 3 -769 c2 -677 1
-773 -13 -800 l-15 -31 27 24 c69 60 63 -21 63 839 0 853 4 803 -60 836 -16 8
-45 15 -65 15 -20 0 -95 9 -168 19 -73 11 -193 27 -267 36 -235 29 -372 46
-480 61 -58 7 -127 16 -155 19 -72 7 -198 25 -213 30 -10 4 -9 11 3 36 9 17
15 33 12 35 -2 2 -14 -20 -28 -48z"/>
<path d="M1504 3485 c-10 -8 -14 -15 -8 -15 5 0 15 5 21 11 8 8 13 8 17 0 4
-6 12 -11 17 -11 6 0 4 7 -5 15 -18 18 -18 18 -42 0z"/>
<path d="M1670 3485 c-14 -17 0 -21 17 -4 17 17 34 1 27 -25 -6 -24 17 -43 37
-30 6 3 17 0 26 -8 14 -11 15 -11 11 2 -3 9 -17 15 -34 15 -25 0 -29 3 -26 24
6 37 -34 55 -58 26z"/>
<path d="M1501 3448 c-1 -13 -9 -18 -30 -18 -36 0 -49 -27 -24 -49 16 -15 16
-15 4 1 -16 21 -5 41 20 35 21 -6 43 16 36 35 -4 8 -6 7 -6 -4z"/>
<path d="M2022 3417 c-21 -23 -22 -30 -22 -280 l0 -257 -27 -1 -28 -1 25 -7
c18 -5 24 -13 22 -29 -3 -20 -1 -19 27 8 34 34 69 38 111 13 31 -18 45 -43
120 -218 54 -124 78 -178 137 -304 18 -40 33 -75 31 -76 -14 -13 -110 -55
-116 -51 -15 9 -28 -29 -21 -64 l6 -35 2 37 c1 35 4 38 74 72 83 41 97 44 97
16 0 -28 66 -159 97 -191 l24 -27 -86 -42 -87 -42 -24 23 c-14 13 -39 52 -56
88 -18 35 -34 57 -37 50 -7 -24 -24 -29 -73 -23 l-48 7 0 -32 c0 -21 5 -31 15
-31 8 0 14 -3 13 -7 -1 -5 1 -18 6 -30 11 -33 49 -39 96 -15 l40 19 0 -27 c0
-44 73 -57 110 -20 11 11 27 20 36 20 8 0 22 7 30 15 10 9 25 12 44 8 31 -6
36 4 31 59 -1 9 6 18 16 21 14 4 13 5 -4 6 -16 1 -23 7 -23 22 0 17 5 20 23
16 12 -4 54 -8 92 -11 l70 -5 -77 12 c-90 15 -109 25 -41 22 27 -1 33 0 16 2
-39 5 -42 16 -9 31 34 15 69 4 63 -19 -3 -11 -1 -19 4 -19 5 0 9 11 9 25 0 16
-6 25 -15 25 -8 0 -15 5 -15 10 0 6 5 10 11 10 6 0 8 9 4 23 -6 22 -6 22 13
-2 15 -19 25 -22 46 -17 36 9 43 32 22 68 -10 16 -15 32 -12 35 3 3 11 -6 17
-21 15 -32 21 -32 69 -5 41 23 69 20 77 -9 2 -9 24 -32 49 -50 24 -18 44 -39
44 -47 0 -9 10 -15 24 -15 14 0 27 -4 30 -9 3 -4 32 -18 65 -31 34 -12 62 -29
64 -39 4 -14 5 -14 6 2 1 13 7 16 24 12 12 -3 72 -7 132 -9 61 -2 142 -6 180
-9 l70 -6 -80 12 c-87 13 -83 28 7 23 29 -2 42 -2 28 1 -51 8 -56 14 -24 28
22 9 46 10 89 3 33 -5 71 -7 85 -6 14 2 -8 7 -47 12 -82 9 -102 30 -24 24 27
-1 47 0 44 5 -2 4 -18 7 -35 7 l-30 0 22 18 c14 11 33 17 51 14 23 -3 29 -9
30 -31 l0 -26 10 23 c12 30 4 42 -27 42 -13 0 -24 4 -24 9 0 5 26 8 58 6 31
-2 46 -2 32 1 -74 14 -74 14 -58 31 14 13 27 14 106 3 49 -7 95 -11 103 -8 7
2 -33 10 -89 17 -107 14 -132 32 -34 26 59 -4 55 -1 -12 10 -35 6 -37 8 -23
22 13 14 27 14 116 3 56 -7 103 -11 106 -8 3 3 -42 11 -100 18 -58 7 -105 17
-105 22 0 6 24 7 60 3 l60 -7 0 31 c0 29 -2 31 -37 29 -37 -1 -37 -1 -5 -5 24
-3 32 -9 32 -25 0 -18 -4 -20 -31 -14 -17 3 -39 6 -49 6 -16 0 -16 3 -4 38 7
20 13 44 14 53 0 13 10 16 53 13 28 -1 41 -1 27 2 -68 13 -69 13 -67 41 3 34
37 46 37 14 0 -12 5 -21 10 -21 6 0 10 11 10 25 0 20 -5 25 -25 25 -14 0 -25
5 -25 11 0 7 25 8 73 5 l72 -5 -70 11 c-68 10 -93 24 -76 41 5 5 49 4 99 -3
49 -7 96 -10 103 -8 8 3 -37 11 -98 18 -62 7 -113 17 -113 23 0 6 18 7 48 3
26 -4 74 -8 107 -11 36 -2 18 2 -45 12 -94 14 -119 24 -120 44 0 3 24 5 53 3
49 -3 43 0 -30 12 -36 5 -44 20 -15 27 13 4 13 5 -4 6 -13 1 -24 9 -27 21 -5
18 -1 19 36 14 23 -3 48 -7 55 -10 6 -2 12 0 12 5 0 5 -27 11 -60 15 -33 4
-60 12 -60 18 0 6 11 8 30 5 16 -4 60 -9 97 -11 57 -5 52 -3 -35 12 -76 12
-106 22 -113 35 -7 12 -6 17 3 18 7 0 2 5 -12 11 l-25 11 25 7 c24 8 24 8 -6
9 -18 1 -39 10 -50 22 l-19 22 55 -7 c136 -16 173 -14 56 4 -71 11 -134 25
-140 31 -8 9 -4 10 15 6 14 -4 59 -9 100 -11 66 -4 61 -3 -37 12 -61 9 -118
22 -125 28 -8 6 -21 14 -29 17 -8 3 19 4 60 2 l75 -4 -85 13 c-47 7 -119 23
-160 35 -62 17 -100 20 -205 19 -72 -1 -114 -4 -95 -7 l35 -6 -42 -13 c-24 -7
-66 -11 -95 -8 l-53 5 44 -10 44 -11 -49 -28 c-27 -15 -60 -40 -74 -54 -22
-25 -25 -25 -31 -9 -6 15 -8 14 -8 -6 -1 -21 -5 -23 -40 -19 -22 2 -37 0 -35
-4 3 -5 19 -8 35 -8 34 0 30 -19 -4 -21 -18 -1 -19 -2 -4 -6 14 -4 16 -8 6
-19 -6 -8 -19 -14 -28 -15 -10 0 -11 -3 -4 -6 8 -3 9 -10 4 -21 -67 -133 -78
-284 -30 -422 12 -36 26 -70 31 -77 6 -7 4 -13 -4 -16 -8 -4 -7 -6 5 -6 9 -1
17 -5 17 -11 0 -19 -29 2 -49 36 l-20 34 -36 -18 c-27 -13 -34 -22 -31 -37 5
-17 3 -17 -13 4 -18 24 -18 24 -50 5 -35 -21 -38 -30 -15 -62 9 -13 14 -26 11
-29 -3 -2 -11 6 -18 19 -6 12 -13 24 -14 26 -2 2 -17 -4 -35 -13 -28 -15 -42
-15 -121 -4 -49 6 -92 16 -95 20 -3 5 4 9 15 9 17 0 21 6 20 28 -2 24 -2 24
-6 4 -6 -30 -38 -25 -37 6 0 12 -5 22 -11 22 -6 0 -21 23 -32 50 l-21 50 66
-4 67 -5 -68 12 c-46 8 -72 18 -78 30 -12 21 -5 21 108 6 71 -10 83 -15 86
-33 4 -17 5 -16 6 5 1 25 -2 26 -81 37 -46 7 -95 12 -110 12 -16 0 -28 5 -28
11 0 8 18 10 60 6 l60 -7 -1 28 c-1 21 -3 22 -6 6 -4 -19 -9 -20 -61 -16 -51
4 -71 14 -72 34 0 3 28 4 63 2 l62 -3 -60 10 c-85 14 -97 21 -50 29 l40 7 -35
2 c-35 1 -60 15 -60 34 0 9 83 3 140 -10 14 -3 22 -2 17 2 -4 5 -42 14 -84 19
l-76 11 -24 45 -24 45 33 6 33 6 -36 2 c-34 1 -59 24 -44 39 2 3 44 0 92 -7
97 -14 126 -32 65 -42 l-37 -6 43 -2 c36 -1 42 2 42 19 0 26 -4 27 -124 44
-54 7 -101 17 -105 23 -13 19 -56 43 -79 43 -13 0 -36 -7 -52 -15 l-30 -16 0
264 c0 321 -6 306 122 287 46 -6 92 -14 103 -16 16 -4 17 -3 5 4 -13 8 -150
32 -184 32 -7 0 -22 -10 -34 -23z m1447 -371 c29 -8 56 -18 60 -22 3 -4 -1 -5
-10 -1 -10 3 -50 8 -90 11 -64 4 -59 2 36 -12 95 -15 117 -22 158 -51 26 -19
47 -35 47 -37 0 -8 -90 11 -115 25 l-30 15 35 6 c27 4 10 9 -73 19 -59 8 -110
11 -114 7 -3 -3 7 -6 24 -6 38 0 121 -28 154 -52 14 -11 48 -21 79 -23 30 -3
59 -10 64 -16 13 -13 -98 -2 -126 12 -34 18 -66 10 -92 -23 -15 -18 -30 -38
-36 -44 -11 -14 -3 -24 15 -18 7 3 63 -2 126 -11 119 -16 158 -36 91 -45 -32
-5 -27 -7 36 -14 101 -11 106 -29 6 -23 l-79 6 79 -12 c74 -11 80 -14 89 -40
5 -16 7 -31 4 -34 -3 -3 -53 1 -112 7 -58 7 -108 11 -110 8 -3 -3 47 -11 112
-19 101 -12 118 -17 121 -33 3 -15 0 -18 -17 -13 -12 3 -19 1 -15 -4 3 -5 12
-9 20 -9 20 0 17 -20 -3 -21 -17 -1 -17 -2 0 -6 18 -5 20 -40 1 -36 -5 1 -43
4 -84 7 l-75 5 77 -13 c103 -16 113 -30 16 -21 l-78 7 0 -30 c0 -30 0 -30 71
-37 44 -4 67 -11 61 -17 -10 -10 -187 8 -214 23 -34 18 -43 9 -55 -48 -16 -72
-24 -123 -17 -102 4 12 16 15 57 13 51 -3 51 -3 10 5 -49 9 -61 17 -46 32 8 8
39 8 112 -1 56 -7 103 -11 106 -8 3 3 -44 11 -105 18 -60 8 -110 17 -110 22 0
10 39 9 103 -1 26 -4 47 -5 47 -1 0 4 -31 11 -70 14 -38 4 -70 12 -70 18 0 6
10 8 24 4 15 -4 26 -1 28 6 3 9 25 9 93 -1 50 -7 91 -14 93 -15 5 -5 -21 -59
-36 -78 -9 -11 -30 -19 -51 -19 l-36 -2 35 -7 c35 -6 30 -13 -15 -23 -17 -4
-16 -5 4 -6 41 -2 4 -31 -43 -33 -39 -1 -39 -1 -7 -5 l34 -4 -39 -26 c-29 -20
-50 -26 -88 -26 -40 0 -43 -1 -13 -4 20 -2 35 -8 32 -14 -9 -13 -94 -11 -210
6 -55 8 -113 14 -130 14 -16 -1 40 -11 125 -23 l155 -22 -47 -13 c-41 -12 -64
-11 -159 3 -61 9 -127 24 -147 33 -35 17 -36 17 -12 24 21 6 19 7 -13 8 -31 1
-47 10 -92 54 -44 43 -55 59 -55 85 0 25 -4 32 -19 32 -11 0 -23 5 -26 10 -4
6 6 10 24 10 23 0 34 -7 45 -28 17 -33 102 -114 137 -131 21 -10 20 -9 -6 13
-31 27 -31 27 3 45 18 9 23 9 26 -1 12 -36 16 -40 11 -10 -4 28 2 41 34 80 38
47 94 139 119 197 22 50 -3 15 -44 -63 -72 -136 -149 -217 -194 -205 -33 9
-85 78 -109 145 -8 21 -15 25 -32 21 l-23 -6 22 -8 c23 -9 31 -39 10 -39 -32
1 -58 45 -58 97 0 23 3 25 28 20 27 -5 27 -5 24 34 -4 42 13 56 21 17 4 -20 4
-19 6 5 1 18 -4 27 -14 27 -8 0 -15 5 -15 10 0 6 7 10 15 10 10 0 15 10 15 30
0 17 -2 30 -4 30 -2 0 -11 3 -20 6 -12 5 -16 0 -16 -20 0 -21 -5 -26 -25 -26
-14 0 -25 2 -25 5 0 2 5 27 11 55 9 43 14 50 35 50 27 0 28 -3 14 -31 -9 -16
-7 -19 10 -19 16 0 20 6 20 33 0 33 26 85 63 125 13 14 33 22 56 23 l36 1 -30
7 -30 7 23 14 c12 8 22 18 22 22 0 21 -71 -42 -103 -91 -28 -43 -37 -51 -37
-33 0 14 -6 22 -17 22 -16 1 -16 2 -3 13 8 7 20 24 27 38 14 32 79 86 154 128
46 26 67 31 125 32 53 1 62 3 39 9 -22 6 -11 8 45 9 41 0 99 -6 129 -13z m83
-161 c2 -20 3 -37 2 -38 -7 -7 -94 6 -94 14 0 17 49 59 68 59 15 0 21 -8 24
-35z m21 10 c4 -8 2 -17 -3 -20 -6 -4 -10 3 -10 14 0 25 6 27 13 6z m75 -15
c11 -19 10 -20 -23 -20 -28 0 -35 4 -35 20 0 14 7 20 23 20 12 0 28 -9 35 -20z
m77 -10 c18 -19 17 -20 -6 -21 -21 -1 -20 -2 6 -8 17 -3 30 -11 30 -16 1 -6 6
-20 13 -32 12 -22 11 -23 -16 -23 -21 0 -31 6 -35 20 -3 14 0 20 11 20 40 0
-1 10 -64 16 -84 7 -123 25 -49 23 28 -2 56 -7 63 -12 8 -6 12 -6 12 2 0 6 -3
11 -8 11 -4 0 -13 9 -20 20 -11 18 -10 20 16 20 16 0 37 -9 47 -20z m-765 -84
c0 -30 -2 -33 -24 -29 -22 5 -23 8 -14 34 14 41 38 38 38 -5z m0 -137 c0 -11
-4 -17 -10 -14 -5 3 -10 13 -10 21 0 8 5 14 10 14 6 0 10 -9 10 -21z m-30 -29
c0 -5 -11 -10 -25 -10 -14 0 -25 5 -25 10 0 6 11 10 25 10 14 0 25 -4 25 -10z
m-12 -32 c19 -19 14 -28 -13 -28 -18 0 -25 5 -25 20 0 22 20 26 38 8z m12 -48
c0 -5 -11 -10 -25 -10 -14 0 -25 5 -25 10 0 6 11 10 25 10 14 0 25 -4 25 -10z
m851 -40 c13 0 19 -7 19 -21 0 -20 -4 -21 -46 -15 -26 3 -55 6 -65 6 -13 0
-19 7 -19 21 0 20 4 21 46 15 26 -3 55 -6 65 -6z m-821 -156 c0 -8 -4 -12 -10
-9 -5 3 -10 10 -10 16 0 5 5 9 10 9 6 0 10 -7 10 -16z m-400 -90 l32 -7 -23
-13 c-34 -19 -52 -17 -67 6 -11 17 -10 20 7 20 10 0 33 -3 51 -6z m25 -54 c-3
-5 -11 -10 -16 -10 -6 0 -7 5 -4 10 3 6 11 10 16 10 6 0 7 -4 4 -10z m-362
-137 c9 -9 -12 -33 -29 -33 -8 0 -14 9 -14 20 0 19 28 28 43 13z m357 -63 c0
-5 -5 -10 -11 -10 -5 0 -7 5 -4 10 3 6 8 10 11 10 2 0 4 -4 4 -10z m-194 -67
c-8 -8 -36 10 -36 25 0 13 3 12 20 -3 11 -10 18 -20 16 -22z"/>
<path d="M3220 3012 c0 -11 -6 -22 -12 -25 -7 -2 1 -7 19 -11 28 -6 32 -11 29
-34 -2 -15 -1 -19 1 -10 8 30 27 38 64 28 19 -6 72 -12 119 -14 l85 -4 -85 14
c-47 8 -114 18 -150 22 -57 7 -61 9 -35 16 17 4 39 11 50 16 17 7 16 9 -10 9
-16 1 -40 4 -52 7 -18 5 -23 2 -23 -14z m25 -2 c3 -5 1 -10 -4 -10 -6 0 -11 5
-11 10 0 6 2 10 4 10 3 0 8 -4 11 -10z"/>
<path d="M3154 2964 c-18 -14 -18 -14 6 -3 31 14 36 19 24 19 -6 0 -19 -7 -30
-16z"/>
<path d="M3372 2896 l-2 -39 -41 7 c-22 4 -68 8 -102 11 -45 3 -34 0 38 -12
55 -8 101 -19 103 -24 2 -4 10 -5 18 -2 10 3 11 9 5 17 -5 6 -11 27 -14 46
l-4 35 -1 -39z"/>
<path d="M3053 2843 c9 -2 23 -2 30 0 6 3 -1 5 -18 5 -16 0 -22 -2 -12 -5z"/>
<path d="M3105 2835 c6 -2 50 -9 99 -15 48 -7 83 -16 77 -20 -7 -4 -23 -5 -37
-2 -20 4 -24 0 -24 -19 0 -41 -12 -51 -48 -38 -25 8 -36 8 -47 -1 -19 -16 -10
-30 21 -30 30 0 30 -3 -6 -83 -28 -61 -31 -65 -62 -64 -23 2 -33 -3 -36 -15
-3 -14 3 -18 27 -18 17 0 31 -5 31 -11 0 -7 -11 -9 -30 -5 -17 3 -30 1 -30 -4
0 -6 13 -10 29 -10 25 0 28 -3 24 -21 -5 -16 -11 -19 -30 -14 -16 4 -22 2 -18
-5 3 -5 13 -10 21 -10 10 0 14 -15 15 -57 l2 -58 7 65 c16 131 52 233 107 308
22 29 29 32 78 32 51 0 137 -21 203 -51 32 -14 51 -48 53 -98 2 -24 2 -23 8 5
5 26 9 30 26 23 17 -6 17 -8 3 -8 -13 -1 -18 -9 -18 -31 0 -26 3 -30 28 -29
23 2 24 2 5 6 -15 3 -23 12 -23 25 0 16 5 19 23 15 12 -4 54 -8 92 -11 l70 -5
-72 12 c-85 14 -103 26 -42 28 l44 2 -37 6 c-20 3 -48 16 -62 28 -17 15 -26
18 -30 10 -3 -8 -10 -6 -20 7 -21 26 -20 36 2 36 13 0 11 3 -7 13 -47 23 -36
36 26 32 l58 -4 -67 12 c-93 17 -97 28 -7 23 l74 -5 -70 10 c-38 5 -77 12 -85
15 -8 3 -49 7 -90 9 -41 2 -104 8 -140 14 -60 10 -138 14 -115 6z m145 -54 c0
-6 -4 -13 -10 -16 -5 -3 -10 1 -10 9 0 9 5 16 10 16 6 0 10 -4 10 -9z"/>
<path d="M3655 2695 c44 -8 96 -13 115 -13 19 0 -1 6 -45 13 -44 8 -96 13
-115 13 -19 0 1 -6 45 -13z"/>
<path d="M3338 2612 c-3 -12 -2 -25 3 -28 5 -3 9 -24 10 -47 0 -23 4 -62 9
-87 6 -32 7 -20 3 44 -3 49 -9 101 -13 115 -6 25 -6 25 -12 3z"/>
<path d="M3713 2613 c9 -2 25 -2 35 0 9 3 1 5 -18 5 -19 0 -27 -2 -17 -5z"/>
<path d="M2961 2502 c0 -13 -4 -21 -8 -19 -5 3 -17 1 -27 -3 -19 -6 -19 -7 1
-12 30 -8 45 5 40 33 l-4 24 -2 -23z"/>
<path d="M3302 2474 c-2 -36 -39 -123 -74 -174 -16 -24 -22 -43 -18 -60 5 -23
13 -26 85 -37 103 -15 175 -16 175 -2 0 5 -4 8 -9 4 -15 -9 -51 51 -71 118
-10 34 -19 53 -19 41 -1 -12 4 -35 10 -52 7 -22 7 -36 -1 -51 -9 -18 -8 -21 8
-21 10 0 27 -9 38 -21 18 -20 18 -20 -21 -17 -27 2 -39 7 -37 16 1 8 -2 11 -7
7 -6 -3 -18 7 -28 22 -14 20 -19 56 -24 143 -3 63 -6 101 -7 84z m-2 -239 c20
4 29 2 34 -11 5 -14 2 -16 -25 -10 -17 3 -44 6 -60 6 -19 0 -29 5 -29 15 0 12
5 13 27 4 14 -5 39 -7 53 -4z"/>
<path d="M3728 2383 c7 -3 16 -2 19 1 4 3 -2 6 -13 5 -11 0 -14 -3 -6 -6z"/>
<path d="M3551 2273 c1 -23 2 -24 6 -6 3 16 13 23 36 26 31 4 31 4 -5 5 -35 2
-38 0 -37 -25z"/>
<path d="M3481 2259 c-6 -18 -11 -32 -11 -33 0 -1 26 -2 58 -3 31 0 46 1 32 3
-68 12 -71 13 -64 39 9 36 -2 31 -15 -6z"/>
<path d="M2448 3433 c6 -2 12 -13 12 -24 0 -21 -9 -22 -82 -10 -26 4 -45 4
-43 0 3 -4 32 -10 65 -14 l60 -7 0 -53 c0 -43 -4 -54 -17 -58 -17 -4 -17 -5 0
-6 9 0 17 -8 17 -17 0 -13 -11 -15 -77 -10 l-78 5 74 -12 c41 -7 76 -17 78
-23 3 -8 -11 -9 -44 -3 -26 4 -64 8 -83 7 -23 0 -14 -3 25 -9 90 -13 105 -18
105 -36 0 -13 -8 -15 -52 -9 -120 15 -165 14 -60 -2 61 -9 112 -20 112 -25 0
-6 -22 -7 -52 -3 -120 15 -165 14 -60 -2 88 -12 112 -19 112 -32 0 -12 -10
-15 -47 -13 l-48 2 48 -9 c56 -10 67 -17 47 -30 -10 -7 -11 -10 -2 -10 6 0 12
-8 12 -18 0 -17 -5 -18 -47 -11 -27 4 -55 8 -63 8 -27 0 23 -16 72 -22 l46 -6
-5 217 c-2 119 -6 223 -8 230 -3 6 -10 12 -17 11 -10 0 -10 -2 0 -6z"/>
<path d="M1630 3408 c60 -17 88 -63 72 -116 -10 -34 -10 -35 4 -17 21 27 11
82 -19 112 -13 14 -39 26 -63 28 l-39 5 45 -12z"/>
<path d="M1541 3388 c-30 -31 -36 -79 -16 -118 28 -54 113 -74 146 -34 10 12
7 12 -22 0 -97 -40 -174 89 -92 154 14 11 21 20 15 20 -6 0 -20 -10 -31 -22z"/>
<path d="M2268 3403 c6 -2 18 -2 25 0 6 3 1 5 -13 5 -14 0 -19 -2 -12 -5z"/>
<path d="M1770 3385 c-16 -19 -6 -45 17 -44 17 1 17 2 1 6 -21 5 -23 24 -6 41
7 7 9 12 6 12 -3 0 -11 -7 -18 -15z"/>
<path d="M1007 3318 c-30 -41 -40 -58 -33 -58 3 0 19 20 36 45 35 52 33 61 -3
13z"/>
<path d="M1178 3333 c-25 -30 -80 -114 -76 -118 1 -1 25 28 51 66 46 66 57 89
25 52z"/>
<path d="M1410 3316 c0 -16 7 -26 22 -29 29 -8 36 -1 9 8 -23 7 -28 30 -8 38
7 3 5 6 -5 6 -12 1 -18 -7 -18 -23z"/>
<path d="M1810 3325 c0 -8 -11 -17 -25 -21 -28 -7 -33 -35 -11 -54 8 -6 12
-19 10 -28 -5 -14 -3 -14 6 1 10 15 8 22 -6 38 -16 17 -16 22 -4 29 8 6 21 10
28 10 6 0 12 9 12 20 0 11 -2 20 -5 20 -3 0 -5 -7 -5 -15z"/>
<path d="M2070 3286 c0 -27 17 -32 127 -40 l68 -5 -80 14 c-44 7 -86 14 -92
14 -7 1 -13 8 -13 16 0 19 27 19 150 0 52 -8 109 -14 125 -14 40 2 -188 37
-242 38 -39 1 -43 -1 -43 -23z"/>
<path d="M3155 3290 c61 -10 124 -19 140 -18 17 0 -17 8 -75 18 -58 10 -121
18 -140 18 -19 0 15 -8 75 -18z"/>
<path d="M2666 3258 c-3 -13 -6 -34 -7 -48 l-1 -25 -8 25 c-7 21 -8 22 -9 5
-1 -11 -7 -57 -15 -102 -7 -45 -10 -80 -5 -78 4 3 10 1 13 -4 3 -5 -1 -11 -9
-15 -9 -3 -15 -18 -15 -38 0 -21 3 -28 8 -20 11 17 66 5 88 -19 21 -23 40 -24
48 -4 3 8 15 15 26 15 17 0 21 5 18 28 -3 23 -9 28 -46 36 -29 6 -41 13 -38
22 3 7 0 15 -7 17 -7 2 -2 2 10 0 21 -3 22 -1 13 23 -15 39 -12 92 6 102 12 6
6 11 -26 22 -39 13 -40 15 -34 47 7 37 0 45 -10 11z m40 -66 c13 -8 7 -72 -6
-72 -11 0 -40 29 -40 40 0 33 22 48 46 32z m28 -261 c-13 -14 -104 112 -104
144 0 9 24 -18 54 -61 30 -44 52 -81 50 -83z m-74 64 c16 -20 10 -26 -18 -18
-12 3 -22 12 -22 19 0 19 24 18 40 -1z m120 -15 c0 -11 -4 -20 -10 -20 -5 0
-10 2 -10 4 0 2 -3 11 -6 20 -4 11 -1 16 10 16 9 0 16 -8 16 -20z"/>
<path d="M1445 3250 c-15 -16 -15 -22 -5 -35 7 -8 20 -15 29 -14 13 0 14 2 1
6 -25 10 -30 27 -13 45 9 10 14 18 11 18 -3 0 -13 -9 -23 -20z"/>
<path d="M3425 3254 c39 -7 84 -13 100 -12 17 0 -1 6 -40 14 -38 7 -83 13
-100 12 -16 0 2 -6 40 -14z"/>
<path d="M950 3235 c-7 -9 -10 -18 -7 -21 3 -3 10 4 17 15 13 25 8 27 -10 6z"/>
<path d="M3665 3224 c39 -7 86 -13 105 -12 21 0 6 5 -40 13 -41 8 -88 13 -105
13 -16 0 2 -6 40 -14z"/>
<path d="M2132 3203 c2 -23 8 -28 31 -29 25 -1 25 -1 2 3 -16 3 -25 11 -25 23
0 16 7 18 63 13 80 -7 71 2 -11 11 l-63 7 3 -28z"/>
<path d="M1724 3205 c-3 -8 -4 -20 -1 -27 3 -7 6 -3 6 9 1 12 9 24 19 26 16 4
16 5 -1 6 -10 0 -20 -6 -23 -14z"/>
<path d="M1500 3203 c5 -2 7 -15 4 -28 -8 -30 27 -53 46 -30 19 22 37 18 44
-10 7 -26 46 -37 46 -12 0 6 4 19 10 27 7 12 12 12 35 0 19 -10 28 -11 37 -2
8 8 6 10 -9 6 -12 -3 -24 -1 -27 5 -12 18 -43 12 -49 -9 -6 -23 -37 -27 -37
-5 0 23 -28 30 -48 12 -22 -20 -43 -8 -40 23 2 12 -3 24 -10 26 -7 1 -8 0 -2
-3z"/>
<path d="M2933 3203 c29 -3 37 -8 37 -25 0 -19 -4 -20 -47 -14 -33 4 -43 3
-33 -4 8 -5 32 -10 53 -10 36 0 38 2 35 28 -3 24 -7 27 -43 28 l-40 1 38 -4z"/>
<path d="M3940 3189 c58 -10 119 -18 135 -17 17 0 -17 8 -75 18 -58 10 -118
18 -135 18 -16 0 17 -9 75 -19z"/>
<path d="M925 3189 c-4 -6 -5 -12 -2 -15 2 -3 7 2 10 11 7 17 1 20 -8 4z"/>
<path d="M4146 3160 c12 -5 26 -15 30 -22 5 -7 11 -348 14 -758 l5 -745 3 741
c2 737 2 741 -19 768 -11 14 -28 26 -37 25 -13 0 -12 -2 4 -9z"/>
<path d="M2920 3131 c33 -4 46 -11 48 -25 4 -17 -1 -18 -42 -14 -25 3 -43 2
-40 -3 3 -5 25 -9 50 -9 44 0 45 1 42 28 -3 25 -6 27 -53 28 l-50 2 45 -7z"/>
<path d="M3058 3113 c12 -2 30 -2 40 0 9 3 -1 5 -23 4 -22 0 -30 -2 -17 -4z"/>
<path d="M2215 3090 c17 -4 48 -8 70 -8 l40 1 -45 8 c-25 4 -56 7 -70 7 -23 0
-22 -1 5 -8z"/>
<path d="M1044 3055 c-17 -13 -16 -14 14 -4 32 11 73 9 117 -6 14 -4 12 -2 -5
9 -32 20 -101 20 -126 1z"/>
<path d="M2890 3061 c8 -6 30 -11 49 -11 30 0 33 -2 29 -25 -3 -14 -1 -25 3
-25 14 0 10 50 -3 55 -7 2 -31 6 -53 10 -29 4 -36 3 -25 -4z"/>
<path d="M2363 3043 c9 -2 23 -2 30 0 6 3 -1 5 -18 5 -16 0 -22 -2 -12 -5z"/>
<path d="M989 3013 l-24 -28 28 24 c25 23 32 31 24 31 -2 0 -14 -12 -28 -27z"/>
<path d="M1065 3025 c-36 -16 -31 -18 13 -5 43 12 104 -11 122 -46 7 -13 15
-22 18 -19 10 10 -28 53 -61 69 -42 19 -53 19 -92 1z"/>
<path d="M1202 3029 c2 -7 25 -14 54 -15 49 -2 43 2 -29 20 -21 5 -28 3 -25
-5z"/>
<path d="M3845 3026 c73 -12 95 -13 84 -2 -2 2 -40 6 -84 10 l-80 5 80 -13z"/>
<path d="M2888 3013 c7 -3 16 -2 19 1 4 3 -2 6 -13 5 -11 0 -14 -3 -6 -6z"/>
<path d="M1370 2994 c25 -7 54 -13 65 -13 11 0 -2 7 -30 15 -65 18 -93 17 -35
-2z"/>
<path d="M2077 3003 c-4 -3 -7 -17 -7 -29 0 -20 7 -23 54 -29 30 -4 61 -5 68
-2 7 3 -3 6 -22 6 -57 2 -80 11 -80 33 0 13 5 18 14 15 8 -3 47 -8 87 -11 l74
-5 -80 14 c-97 16 -100 17 -108 8z"/>
<path d="M1046 2969 c-42 -49 -32 -105 24 -134 38 -20 73 -11 105 27 33 39 32
73 -4 109 -41 41 -90 40 -125 -2z"/>
<path d="M1241 2979 c6 -12 15 -42 19 -68 6 -39 8 -41 9 -13 1 32 -22 102 -34
102 -3 0 -1 -10 6 -21z"/>
<path d="M2888 2983 c7 -3 16 -2 19 1 4 3 -2 6 -13 5 -11 0 -14 -3 -6 -6z"/>
<path d="M951 2943 c-7 -21 -14 -165 -16 -328 -3 -159 -8 -404 -11 -542 l-6
-253 -54 0 c-41 0 -59 -5 -81 -24 l-28 -24 -3 -241 -3 -241 -40 0 c-37 0 -39
-2 -39 -30 l0 -30 127 0 c117 0 125 -1 107 -16 -26 -21 -14 -16 104 51 56 32
101 59 99 62 -3 2 -20 -5 -38 -16 -28 -17 -51 -21 -131 -21 l-98 0 0 234 c0
260 2 270 68 282 l32 7 0 -45 c0 -46 33 -138 50 -138 5 0 -2 19 -15 43 l-25
42 1 500 c0 275 4 559 8 630 4 72 6 132 5 133 -1 2 -7 -13 -13 -35z"/>
<path d="M1535 2960 c39 -10 81 -18 95 -18 14 0 -9 8 -50 18 -41 11 -84 19
-95 18 -11 0 12 -8 50 -18z"/>
<path d="M2343 2973 c29 -3 37 -8 37 -24 0 -19 -5 -20 -72 -15 -60 4 -65 3
-28 -4 25 -5 60 -9 78 -9 29 -1 32 2 32 29 0 29 -2 30 -42 28 l-43 -1 38 -4z"/>
<path d="M3908 2973 c7 -3 16 -2 19 1 4 3 -2 6 -13 5 -11 0 -14 -3 -6 -6z"/>
<path d="M1705 2924 c28 -7 59 -13 70 -13 11 0 -2 7 -30 14 -27 8 -59 14 -70
14 -11 -1 3 -7 30 -15z"/>
<path d="M2480 2916 c0 -14 4 -27 8 -30 5 -3 6 8 4 25 -5 35 -12 38 -12 5z"/>
<path d="M2600 2910 c0 -29 -2 -30 -47 -32 -44 -1 -45 -2 -10 -5 33 -4 37 -7
37 -34 0 -36 -21 -38 -48 -4 -14 17 -23 22 -27 14 -5 -6 -20 -9 -37 -5 -18 3
-27 2 -23 -4 3 -6 13 -10 21 -10 8 0 14 -4 14 -10 0 -5 -4 -10 -9 -10 -15 0
-21 -31 -10 -51 10 -20 8 -20 -75 -13 l-86 7 0 -26 c0 -31 10 -34 110 -41 l75
-5 -65 10 c-97 14 -110 18 -110 34 0 18 29 19 118 5 71 -12 122 -38 100 -51
-8 -6 -3 -9 17 -8 l30 0 -35 27 c-56 44 -82 71 -75 82 4 6 13 3 23 -8 32 -36
108 -91 153 -111 50 -23 27 -29 -26 -7 -52 22 -42 8 11 -15 41 -18 47 -19 62
-6 9 8 28 17 42 20 25 4 25 4 -2 6 -28 1 -63 41 -36 41 51 -1 87 -14 91 -34 3
-17 5 -16 6 6 1 25 -2 27 -56 34 -32 3 -64 11 -70 16 -7 6 -22 8 -33 5 -11 -3
-20 -1 -20 4 0 5 8 9 18 10 11 1 9 4 -8 9 -17 5 -19 8 -7 9 16 1 16 3 1 26
l-16 25 43 2 44 1 -45 6 c-33 4 -46 11 -48 24 -4 17 2 18 75 14 l78 -6 -68 11
-69 11 4 33 c2 19 0 34 -4 34 -4 0 -8 -13 -8 -30z"/>
<path d="M4050 2926 c41 -6 77 -11 79 -9 11 7 -9 12 -79 17 l-75 5 75 -13z"/>
<path d="M1855 2894 c28 -7 57 -13 65 -13 8 0 -7 7 -35 15 -27 7 -57 13 -65
13 -8 0 8 -7 35 -15z"/>
<path d="M2300 2880 c0 -22 5 -30 18 -29 10 0 12 3 5 6 -7 2 -13 13 -13 22 0
16 6 17 48 10 26 -4 63 -8 82 -7 29 0 26 2 -15 9 -136 22 -125 23 -125 -11z"/>
<path d="M3915 2895 c44 -8 96 -13 115 -13 19 0 -1 6 -45 13 -44 8 -96 13
-115 13 -19 0 1 -6 45 -13z"/>
<path d="M4115 2880 c-3 -5 -1 -10 4 -10 6 0 11 5 11 10 0 6 -2 10 -4 10 -3 0
-8 -4 -11 -10z"/>
<path d="M1210 2871 c0 -6 -12 -23 -26 -37 -14 -15 -20 -24 -13 -22 18 6 54
56 46 65 -4 3 -7 1 -7 -6z"/>
<path d="M3895 2870 c121 -19 123 -20 128 -43 4 -19 4 -19 6 4 1 32 -11 36
-120 43 l-74 5 60 -9z"/>
<path d="M2046 2825 c-14 -13 -26 -32 -25 -42 0 -12 4 -9 10 9 6 15 19 30 30
33 10 4 19 11 19 16 0 13 -4 11 -34 -16z"/>
<path d="M2378 2843 c6 -2 18 -2 25 0 6 3 1 5 -13 5 -14 0 -19 -2 -12 -5z"/>
<path d="M2777 2831 c4 -16 -1 -20 -29 -24 l-33 -4 38 -1 c33 -2 37 0 37 23 0
14 -4 25 -9 25 -5 0 -7 -9 -4 -19z"/>
<path d="M1271 2784 c0 -21 7 -77 15 -124 l13 -85 -6 80 c-3 44 -7 97 -9 119
-4 51 -14 60 -13 10z"/>
<path d="M1982 2785 c0 -16 2 -22 5 -12 2 9 2 23 0 30 -3 6 -5 -1 -5 -18z"/>
<path d="M2056 2795 c-12 -32 17 -61 49 -49 9 4 15 19 15 35 0 25 -4 29 -29
29 -16 0 -31 -6 -35 -15z"/>
<path d="M1395 2764 c39 -7 84 -13 100 -12 17 0 -1 6 -40 14 -38 7 -83 13
-100 12 -16 0 2 -6 40 -14z"/>
<path d="M1665 2730 c61 -10 124 -19 140 -18 17 0 -19 8 -80 18 -60 10 -123
19 -140 18 -16 0 20 -8 80 -18z"/>
<path d="M1990 2742 c0 -4 8 -18 17 -32 14 -19 14 -23 2 -18 -9 3 -47 9 -85
12 l-69 5 70 -12 70 -12 5 -388 5 -389 28 -24 c20 -17 39 -24 65 -23 20 1 28
3 17 6 -11 2 -30 6 -43 9 -12 2 -31 13 -42 24 -19 19 -20 35 -20 400 0 209 4
380 8 380 5 0 41 -58 81 -130 40 -71 78 -133 84 -137 7 -4 5 4 -4 17 -8 14
-53 91 -98 173 -78 138 -91 158 -91 139z"/>
<path d="M2060 2720 c8 -5 24 -10 34 -10 26 0 18 6 -19 14 -22 5 -26 4 -15 -4z"/>
<path d="M4030 2699 c25 -4 59 -7 75 -7 26 0 25 1 -10 9 -22 4 -56 8 -75 7
-33 0 -32 -1 10 -9z"/>
<path d="M2405 2620 c-3 -5 -1 -10 4 -10 6 0 11 5 11 10 0 6 -2 10 -4 10 -3 0
-8 -4 -11 -10z"/>
<path d="M4078 2573 c12 -2 30 -2 40 0 9 3 -1 5 -23 4 -22 0 -30 -2 -17 -4z"/>
<path d="M1302 2495 c0 -22 6 -78 13 -125 8 -53 13 -70 13 -45 0 22 -6 78 -13
125 -8 53 -13 70 -13 45z"/>
<path d="M1924 2225 c0 -170 2 -242 3 -158 2 83 2 223 0 310 -1 87 -3 19 -3
-152z"/>
<path d="M4007 2460 c6 -21 4 -22 -73 -16 l-79 5 80 -13 c44 -7 81 -13 82 -12
8 6 5 50 -4 53 -7 3 -9 -3 -6 -17z"/>
<path d="M2392 2412 c2 -17 9 -27 21 -28 12 -1 13 -1 2 3 -8 2 -15 12 -15 21
0 14 8 17 48 13 60 -4 52 4 -11 12 -48 7 -48 7 -45 -21z"/>
<path d="M2615 2405 c44 -7 81 -14 82 -14 1 -1 4 -11 6 -23 4 -21 4 -20 6 3 1
33 -7 36 -100 43 l-74 5 80 -14z"/>
<path d="M2067 2375 c-2 -14 -2 -27 2 -29 3 -2 36 -7 73 -11 37 -4 75 -13 85
-20 16 -12 12 -13 -27 -7 -25 3 -61 7 -80 7 -31 0 -35 -3 -35 -25 0 -28 27
-38 105 -37 35 0 29 2 -27 9 -63 9 -73 13 -73 30 0 18 4 20 48 14 98 -14 111
-18 117 -36 3 -10 13 -24 22 -32 10 -7 0 19 -22 57 -48 88 -65 113 -65 97 0
-8 7 -20 15 -29 23 -23 14 -26 -60 -18 -59 7 -66 10 -62 26 3 11 2 21 -3 24
-4 3 -10 -7 -13 -20z"/>
<path d="M2118 2383 c6 -2 18 -2 25 0 6 3 1 5 -13 5 -14 0 -19 -2 -12 -5z"/>
<path d="M2545 2365 c44 -8 96 -13 115 -13 19 0 -1 6 -45 13 -44 8 -96 13
-115 13 -19 0 1 -6 45 -13z"/>
<path d="M4083 2313 c9 -2 25 -2 35 0 9 3 1 5 -18 5 -19 0 -27 -2 -17 -5z"/>
<path d="M1529 2273 c-13 -16 -12 -17 4 -4 9 7 17 15 17 17 0 8 -8 3 -21 -13z"/>
<path d="M4005 2275 c44 -7 91 -13 105 -13 45 0 -39 16 -115 22 l-70 5 80 -14z"/>
<path d="M2888 2253 c7 -3 16 -2 19 1 4 3 -2 6 -13 5 -11 0 -14 -3 -6 -6z"/>
<path d="M4011 2246 c2 -2 31 -6 64 -9 39 -4 51 -3 35 2 -25 9 -107 15 -99 7z"/>
<path d="M1331 2213 c-2 -54 25 -240 34 -232 2 2 -5 63 -15 134 -10 72 -18
116 -19 98z"/>
<path d="M2888 2223 c7 -3 16 -2 19 1 4 3 -2 6 -13 5 -11 0 -14 -3 -6 -6z"/>
<path d="M2958 2198 c5 -20 2 -21 -36 -15 -23 3 -40 2 -37 -3 3 -4 23 -10 45
-12 38 -3 40 -2 40 24 0 16 -4 28 -9 28 -5 0 -7 -10 -3 -22z"/>
<path d="M3945 2205 c44 -8 96 -13 115 -13 19 0 -1 6 -45 13 -44 8 -96 13
-115 13 -19 0 1 -6 45 -13z"/>
<path d="M2377 2168 c-21 -11 -36 -22 -33 -25 5 -5 86 35 86 42 0 9 -14 4 -53
-17z"/>
<path d="M2871 2129 c-1 -28 18 -39 72 -39 23 0 27 4 27 30 0 29 -2 30 -42 28
l-43 -1 38 -4 c29 -3 37 -9 37 -24 0 -33 -76 -20 -83 15 -4 17 -4 17 -6 -5z"/>
<path d="M3815 2115 c6 -2 31 -6 57 -10 38 -5 48 -10 51 -28 4 -19 4 -19 6 4
1 22 -4 28 -30 33 -32 6 -102 7 -84 1z"/>
<path d="M2801 2072 c-1 -23 -3 -23 -68 -18 l-68 5 68 -11 c37 -6 70 -8 73 -5
3 3 4 16 1 29 l-4 23 -2 -23z"/>
<path d="M3745 2075 c44 -8 96 -13 115 -13 19 0 -1 6 -45 13 -44 8 -96 13
-115 13 -19 0 1 -6 45 -13z"/>
<path d="M2917 2068 c31 -7 43 -14 46 -31 4 -19 4 -19 6 4 1 28 -19 40 -69 38
-17 -1 -11 -4 17 -11z"/>
<path d="M3375 2040 c66 -10 136 -18 155 -18 19 0 -19 9 -85 19 -66 10 -136
17 -155 17 -19 0 19 -9 85 -18z"/>
<path d="M3785 2039 c66 -10 136 -17 155 -17 19 0 -19 9 -85 19 -66 10 -136
17 -155 17 -19 0 19 -9 85 -19z"/>
<path d="M2457 2019 c-22 -11 -37 -22 -35 -24 4 -5 88 35 88 41 0 8 -16 3 -53
-17z"/>
<path d="M2893 2023 c9 -2 25 -2 35 0 9 3 1 5 -18 5 -19 0 -27 -2 -17 -5z"/>
<path d="M3680 2005 c47 -7 101 -13 120 -13 19 0 -1 6 -45 13 -44 8 -98 13
-120 13 -25 0 -9 -5 45 -13z"/>
<path d="M4020 2016 c0 -2 18 -6 40 -8 22 -2 40 0 40 4 0 5 -18 8 -40 8 -22 0
-40 -2 -40 -4z"/>
<path d="M2898 1993 c12 -2 30 -2 40 0 9 3 -1 5 -23 4 -22 0 -30 -2 -17 -4z"/>
<path d="M3546 1988 c-16 -36 0 -45 103 -58 55 -7 105 -10 112 -8 6 2 -36 10
-94 17 -103 12 -106 13 -110 39 -3 23 -5 24 -11 10z"/>
<path d="M2961 1972 c-1 -20 -5 -22 -43 -17 l-43 4 43 -11 c48 -12 55 -9 49
24 l-4 23 -2 -23z"/>
<path d="M3685 1975 c44 -8 96 -13 115 -13 19 0 -1 6 -45 13 -44 8 -96 13
-115 13 -19 0 1 -6 45 -13z"/>
<path d="M3950 1975 c123 -19 150 -19 150 3 0 13 -2 14 -9 3 -7 -11 -22 -12
-85 -2 -42 6 -91 10 -109 10 -18 -1 6 -7 53 -14z"/>
<path d="M3032 1953 c2 -23 8 -28 33 -30 28 -2 28 -1 5 5 -14 5 -26 16 -28 25
-3 15 4 17 55 12 51 -4 53 -3 18 5 -73 16 -87 14 -83 -17z"/>
<path d="M1362 1945 c0 -16 2 -22 5 -12 2 9 2 23 0 30 -3 6 -5 -1 -5 -18z"/>
<path d="M2608 1948 c52 -8 62 -13 62 -30 0 -16 -5 -19 -22 -15 -13 4 -54 8
-93 11 l-70 5 85 -14 c47 -8 91 -12 98 -10 6 2 12 15 12 28 0 27 -31 38 -99
36 -27 -1 -21 -4 27 -11z"/>
<path d="M3320 1939 c69 -10 141 -18 160 -17 19 0 -21 8 -90 18 -69 10 -141
18 -160 18 -19 0 21 -8 90 -19z"/>
<path d="M3995 1939 c66 -10 121 -18 123 -18 1 -1 2 -7 2 -15 0 -8 -10 -17
-22 -19 -20 -4 -19 -4 5 -6 22 -1 27 3 27 24 0 19 -6 25 -32 30 -103 17 -166
25 -193 24 -16 -1 24 -10 90 -20z"/>
<path d="M1105 1904 c-46 -24 -64 -44 -77 -85 -9 -32 -8 -46 6 -83 22 -58 55
-79 123 -79 45 0 59 5 83 28 41 40 55 85 39 133 -15 48 -25 59 -70 83 -46 23
-65 24 -104 3z"/>
<path d="M2871 1899 c-1 -22 4 -28 30 -33 60 -12 69 -8 69 24 0 29 -2 30 -42
28 l-43 -1 38 -4 c29 -3 37 -8 37 -25 0 -18 -4 -20 -31 -14 -17 3 -35 6 -40 6
-4 0 -10 10 -12 23 -4 20 -4 19 -6 -4z"/>
<path d="M3215 1905 c44 -8 96 -13 115 -13 19 0 -1 6 -45 13 -44 8 -96 13
-115 13 -19 0 1 -6 45 -13z"/>
<path d="M3625 1905 c44 -8 96 -13 115 -13 19 0 -1 6 -45 13 -44 8 -96 13
-115 13 -19 0 1 -6 45 -13z"/>
<path d="M3885 1905 c44 -8 98 -13 120 -13 25 0 9 5 -45 13 -47 7 -101 13
-120 13 -19 0 1 -6 45 -13z"/>
<path d="M1927 1892 c11 -46 54 -68 171 -87 60 -9 116 -15 123 -13 7 2 -43 13
-111 23 -127 18 -144 26 -177 81 -11 18 -11 18 -6 -4z"/>
<path d="M1365 1873 c3 -12 6 -55 7 -95 0 -59 2 -67 9 -43 5 17 7 40 4 53 -5
20 -2 22 43 22 35 0 58 -6 78 -22 l29 -22 -24 27 c-21 23 -33 27 -78 27 -48 0
-53 2 -53 23 0 12 -5 29 -11 37 -8 12 -9 10 -4 -7z"/>
<path d="M3485 1875 c44 -8 96 -13 115 -13 19 0 -1 6 -45 13 -44 8 -96 13
-115 13 -19 0 1 -6 45 -13z"/>
<path d="M3830 1885 c8 -2 32 -6 52 -10 27 -4 38 -11 41 -28 4 -19 4 -19 6 4
1 30 -19 39 -79 38 -19 -1 -28 -3 -20 -4z"/>
<path d="M3221 1853 c2 -24 2 -25 6 -5 4 21 8 22 71 18 59 -5 61 -4 22 4 -25
5 -57 9 -72 9 -24 1 -28 -3 -27 -26z"/>
<path d="M2235 1844 c39 -7 84 -13 100 -12 17 0 -1 6 -40 14 -38 7 -83 13
-100 12 -16 0 2 -6 40 -14z"/>
<path d="M3485 1845 c44 -8 96 -13 115 -13 19 0 -1 6 -45 13 -44 8 -96 13
-115 13 -19 0 1 -6 45 -13z"/>
<path d="M3755 1845 c44 -8 96 -13 115 -13 19 0 -1 6 -45 13 -44 8 -96 13
-115 13 -19 0 1 -6 45 -13z"/>
<path d="M1322 1810 c0 -14 2 -19 5 -12 2 6 2 18 0 25 -3 6 -5 1 -5 -13z"/>
<path d="M2413 1823 c9 -2 25 -2 35 0 9 3 1 5 -18 5 -19 0 -27 -2 -17 -5z"/>
<path d="M2470 1819 c0 -7 188 -34 195 -27 2 2 -41 10 -96 19 -54 8 -99 12
-99 8z"/>
<path d="M3278 1823 c6 -2 18 -2 25 0 6 3 1 5 -13 5 -14 0 -19 -2 -12 -5z"/>
<path d="M3323 1823 c9 -9 173 -33 217 -32 20 1 0 7 -45 14 -137 21 -179 25
-172 18z"/>
<path d="M3693 1823 c9 -2 25 -2 35 0 9 3 1 5 -18 5 -19 0 -27 -2 -17 -5z"/>
<path d="M3750 1819 c0 -7 218 -34 225 -27 3 2 -47 11 -110 19 -63 8 -115 12
-115 8z"/>
<path d="M1905 1775 l-30 -14 30 7 c38 9 130 9 215 0 l65 -7 -70 14 c-90 18
-172 18 -210 0z"/>
<path d="M2345 1774 c39 -7 84 -13 100 -12 17 0 -1 6 -40 14 -38 7 -83 13
-100 12 -16 0 2 -6 40 -14z"/>
<path d="M2780 1774 c41 -7 89 -13 105 -12 17 0 -4 6 -45 13 -41 8 -88 13
-105 13 -16 0 4 -6 45 -14z"/>
<path d="M3690 1774 c47 -7 101 -12 120 -12 19 0 -1 6 -45 13 -44 8 -98 13
-120 13 -26 0 -10 -5 45 -14z"/>
<path d="M4050 1783 c59 -9 69 -14 73 -36 4 -20 4 -19 6 4 1 31 -14 40 -67 38
-26 -1 -29 -3 -12 -6z"/>
<path d="M1829 1743 c-13 -15 -12 -15 11 -3 34 17 36 20 18 20 -9 0 -22 -7
-29 -17z"/>
<path d="M2290 1744 c41 -7 89 -13 105 -12 17 0 -4 6 -45 13 -41 8 -88 13
-105 13 -16 0 4 -6 45 -14z"/>
<path d="M2585 1744 c39 -7 84 -13 100 -12 17 0 -1 6 -40 14 -38 7 -83 13
-100 12 -16 0 2 -6 40 -14z"/>
<path d="M3020 1744 c41 -7 89 -13 105 -12 17 0 -4 6 -45 13 -41 8 -88 13
-105 13 -16 0 4 -6 45 -14z"/>
<path d="M3965 1745 c44 -8 96 -13 115 -13 19 0 -1 6 -45 13 -44 8 -96 13
-115 13 -19 0 1 -6 45 -13z"/>
<path d="M1532 1740 c0 -8 6 -31 13 -50 7 -19 13 -28 13 -20 0 8 -6 31 -13 50
-7 19 -13 28 -13 20z"/>
<path d="M1697 1670 c-54 -32 -101 -61 -105 -66 -9 -9 -8 -9 116 61 94 52 115
67 95 64 -5 -1 -52 -27 -106 -59z"/>
<path d="M2560 1709 c58 -10 119 -18 135 -17 17 0 -17 8 -75 18 -58 10 -118
18 -135 18 -16 0 17 -9 75 -19z"/>
<path d="M2860 1709 c58 -10 119 -18 135 -17 17 0 -17 8 -75 18 -58 10 -118
18 -135 18 -16 0 17 -9 75 -19z"/>
<path d="M3290 1709 c58 -10 119 -18 135 -17 17 0 -17 9 -75 19 -58 10 -118
18 -135 17 -16 0 17 -9 75 -19z"/>
<path d="M1962 1702 c-13 -4 21 -7 75 -8 76 -1 88 1 53 7 -54 9 -97 9 -128 1z"/>
<path d="M1335 1652 c-18 -28 -47 -55 -74 -69 -24 -13 -37 -23 -28 -23 24 0
99 61 120 98 29 50 16 45 -18 -6z"/>
<path d="M1884 1674 c-19 -15 -19 -15 1 -6 11 5 27 12 35 15 13 5 13 6 -1 6
-8 1 -24 -6 -35 -15z"/>
<path d="M2230 1674 c41 -7 89 -13 105 -12 17 0 -4 6 -45 13 -41 8 -88 13
-105 13 -16 0 4 -6 45 -14z"/>
<path d="M2825 1674 c39 -7 84 -13 100 -12 17 0 -1 6 -40 14 -38 7 -83 13
-100 12 -16 0 2 -6 40 -14z"/>
<path d="M3125 1674 c39 -7 86 -13 105 -12 21 0 6 5 -40 13 -41 8 -88 13 -105
13 -16 0 2 -6 40 -14z"/>
<path d="M3560 1675 c41 -8 89 -13 105 -13 17 0 -4 6 -45 14 -41 7 -88 13
-105 12 -16 0 4 -6 45 -13z"/>
<path d="M1276 1654 c-23 -23 -20 -30 4 -9 11 10 20 20 20 22 0 7 -9 2 -24
-13z"/>
<path d="M1829 1643 c-13 -15 -12 -15 9 -4 23 12 28 21 13 21 -5 0 -15 -7 -22
-17z"/>
<path d="M2465 1644 c39 -7 84 -13 100 -12 17 0 -1 6 -40 14 -38 7 -83 13
-100 12 -16 0 2 -6 40 -14z"/>
<path d="M3060 1645 c41 -8 89 -13 105 -13 17 0 -1 6 -40 14 -38 7 -86 13
-105 12 -21 0 -6 -5 40 -13z"/>
<path d="M3365 1644 c39 -7 86 -13 105 -12 21 0 6 5 -40 13 -41 8 -88 13 -105
13 -16 0 2 -6 40 -14z"/>
<path d="M3800 1645 c41 -8 89 -13 105 -13 17 0 -4 6 -45 14 -41 7 -88 13
-105 12 -16 0 4 -6 45 -13z"/>
<path d="M1561 1635 c0 -11 4 -27 9 -35 9 -13 10 -13 9 0 0 8 -4 24 -9 35 l-9
20 0 -20z"/>
<path d="M1080 1621 c0 -26 140 -26 164 0 8 9 7 10 -9 4 -34 -14 -112 -17
-134 -6 -13 7 -21 8 -21 2z"/>
<path d="M1723 1587 c-40 -24 -76 -47 -80 -51 -11 -11 82 37 132 68 66 42 25
28 -52 -17z"/>
<path d="M2695 1614 c39 -7 86 -12 105 -12 22 0 7 5 -40 14 -41 7 -88 13 -105
12 -16 0 2 -6 40 -14z"/>
<path d="M3295 1614 c39 -7 86 -13 105 -12 21 0 6 5 -40 13 -41 8 -88 13 -105
13 -16 0 2 -6 40 -14z"/>
<path d="M3580 1619 c77 -15 171 -26 163 -19 -9 8 -158 31 -188 29 -11 -1 0
-5 25 -10z"/>
<path d="M4054 1613 c68 -11 95 -12 114 -4 13 7 22 14 19 18 -4 3 -13 0 -21
-6 -12 -10 -31 -10 -85 -2 -38 6 -80 10 -93 10 -13 -1 17 -8 66 -16z"/>
<path d="M1000 1617 c0 -11 74 -57 90 -57 8 0 4 6 -10 13 -14 7 -37 21 -52 31
-16 10 -28 16 -28 13z"/>
<path d="M2960 1580 c58 -10 119 -18 135 -18 17 0 -17 9 -75 19 -58 10 -118
18 -135 17 -16 0 17 -8 75 -18z"/>
<path d="M3468 1593 c6 -2 18 -2 25 0 6 3 1 5 -13 5 -14 0 -19 -2 -12 -5z"/>
<path d="M3514 1593 c8 -9 146 -32 186 -31 30 0 -17 10 -159 32 -18 3 -31 2
-27 -1z"/>
<path d="M3783 1593 c9 -2 23 -2 30 0 6 3 -1 5 -18 5 -16 0 -22 -2 -12 -5z"/>
<path d="M3840 1589 c0 -8 188 -34 195 -27 3 2 -40 11 -95 19 -55 8 -100 12
-100 8z"/>
<path d="M1534 1575 c-10 -8 -14 -15 -8 -15 6 0 17 7 24 15 16 19 9 19 -16 0z"/>
<path d="M1133 1553 c15 -2 39 -2 55 0 15 2 2 4 -28 4 -30 0 -43 -2 -27 -4z"/>
<path d="M1372 1484 c-73 -42 -131 -78 -129 -81 3 -2 55 25 115 61 61 36 115
66 120 66 5 0 15 7 22 15 7 8 11 15 9 15 -2 0 -64 -34 -137 -76z"/>
<path d="M3230 1545 c41 -8 89 -13 105 -13 17 0 -4 6 -45 14 -41 7 -88 13
-105 12 -16 0 4 -6 45 -13z"/>
<path d="M3830 1545 c41 -8 89 -13 105 -13 17 0 -1 6 -40 14 -38 7 -86 13
-105 12 -21 0 -6 -5 40 -13z"/>
<path d="M4115 1549 c52 -10 103 -11 108 -1 3 4 -29 8 -72 8 -63 1 -69 0 -36
-7z"/>
<path d="M1515 1470 c-81 -47 -100 -63 -100 -82 0 -15 6 -23 20 -25 16 -1 16
-1 3 3 -41 12 -16 40 87 97 96 54 118 69 98 66 -5 0 -53 -27 -108 -59z"/>
<path d="M3465 1514 c39 -7 84 -13 100 -12 17 0 -1 6 -40 14 -38 7 -83 13
-100 12 -16 0 2 -6 40 -14z"/>
<path d="M4070 1514 c41 -7 89 -12 105 -12 17 0 -4 6 -45 14 -41 7 -88 12
-105 12 -16 0 4 -6 45 -14z"/>
<path d="M3730 1480 c58 -10 119 -18 135 -18 17 0 -17 9 -75 19 -58 10 -118
18 -135 17 -16 0 17 -8 75 -18z"/>
<path d="M4257 1460 c-3 -11 -16 -25 -29 -30 -12 -6 -32 -16 -43 -23 -11 -7
-146 -84 -300 -172 -154 -88 -289 -165 -300 -172 -11 -6 -33 -19 -50 -27 -16
-9 -46 -26 -65 -37 -19 -12 -56 -33 -82 -48 -25 -14 -106 -60 -180 -102 -160
-91 -207 -104 -322 -89 -45 6 -148 20 -231 30 -178 24 -335 44 -505 65 -69 9
-170 22 -225 30 -55 8 -125 17 -155 20 -30 3 -102 12 -160 20 -58 7 -161 21
-230 30 -670 87 -685 89 -685 111 0 13 24 33 80 66 92 54 121 73 85 57 -55
-25 -166 -92 -177 -107 -17 -21 -17 -97 0 -111 8 -6 49 -15 93 -21 43 -6 144
-19 224 -30 80 -10 204 -26 275 -35 72 -9 177 -22 235 -30 58 -8 164 -21 235
-30 72 -9 193 -25 270 -35 77 -11 196 -26 265 -35 69 -9 179 -23 245 -31 66
-8 167 -22 225 -30 58 -9 143 -18 190 -21 l85 -5 85 44 c47 25 198 109 335
188 292 167 322 184 355 203 14 7 125 71 248 141 l222 128 0 54 c0 57 -4 68
-13 34z"/>
<path d="M3955 1451 c41 -9 44 -36 6 -56 -17 -8 -31 -18 -31 -21 0 -10 61 28
67 42 8 21 -16 44 -46 43 -25 -1 -25 -2 4 -8z"/>
<path d="M1177 1376 c-58 -35 -69 -53 -12 -21 28 15 54 32 60 36 17 16 -9 8
-48 -15z"/>
<path d="M1530 1344 c41 -7 89 -13 105 -12 17 0 -4 6 -45 13 -41 8 -88 13
-105 13 -16 0 4 -6 45 -14z"/>
<path d="M3805 1309 c-49 -28 -94 -56 -100 -62 -5 -6 10 1 35 15 25 14 71 40
103 58 48 27 66 40 55 40 -2 0 -43 -23 -93 -51z"/>
<path d="M1760 1315 c41 -8 89 -13 105 -13 17 0 -4 6 -45 14 -41 7 -88 13
-105 12 -16 0 4 -6 45 -13z"/>
<path d="M1995 1284 c39 -7 84 -13 100 -12 17 0 -1 6 -40 14 -38 7 -83 13
-100 12 -16 0 2 -6 40 -14z"/>
<path d="M2260 1250 c58 -10 119 -18 135 -18 17 0 -17 9 -75 19 -58 10 -118
18 -135 17 -16 0 17 -8 75 -18z"/>
<path d="M2525 1214 c39 -7 86 -13 105 -12 21 0 6 5 -40 13 -41 8 -88 13 -105
13 -16 0 2 -6 40 -14z"/>
<path d="M3644 1214 c-18 -14 -18 -15 4 -4 12 6 22 13 22 15 0 8 -5 6 -26 -11z"/>
<path d="M2765 1184 c39 -7 84 -13 100 -12 17 0 -1 6 -40 14 -38 7 -83 13
-100 12 -16 0 2 -6 40 -14z"/>
<path d="M3577 1181 c-40 -26 -47 -36 -12 -18 42 23 62 37 50 36 -5 0 -22 -8
-38 -18z"/>
<path d="M2995 1155 c114 -20 148 -24 141 -18 -8 8 -145 32 -181 31 -16 0 2
-6 40 -13z"/>
<path d="M3465 1128 c-54 -17 -68 -18 -143 -7 -45 7 -84 10 -87 7 -3 -3 35
-11 84 -18 80 -11 95 -11 145 5 31 10 59 22 62 26 3 5 4 9 2 8 -2 -1 -30 -10
-63 -21z"/>
<path d="M3158 1133 c6 -2 18 -2 25 0 6 3 1 5 -13 5 -14 0 -19 -2 -12 -5z"/>
</g>
</svg>
